<svg width="32" height="32" viewBox="0 0 32 32" fill="none" xmlns="http://www.w3.org/2000/svg">
<g id="Apple logo">
<g id="Group">
<g id="Group_2">
<path id="Vector" d="M22.1582 0C22.2326 0 22.3071 0 22.3858 0C22.5685 2.25671 21.7071 3.94291 20.6603 5.16401C19.6331 6.37667 18.2265 7.5528 15.9515 7.37435C15.7998 5.14996 16.6625 3.58881 17.708 2.37053C18.6776 1.23515 20.4551 0.224828 22.1582 0Z" fill="black"/>
<path id="Vector_2" d="M29.0449 23.4889C29.0449 23.5114 29.0449 23.531 29.0449 23.5521C28.4056 25.4884 27.4936 27.1479 26.3807 28.688C25.3648 30.0862 24.1198 31.9677 21.8968 31.9677C19.9759 31.9677 18.7 30.7325 16.7314 30.6988C14.6489 30.6651 13.5037 31.7316 11.5997 32C11.3819 32 11.1641 32 10.9505 32C9.55236 31.7977 8.42401 30.6904 7.60198 29.6927C5.17806 26.7447 3.30496 22.9366 2.95648 18.0635C2.95648 17.5857 2.95648 17.1094 2.95648 16.6316C3.10403 13.144 4.79866 10.3084 7.05116 8.93409C8.23993 8.2034 9.87415 7.58091 11.6938 7.85914C12.4737 7.97998 13.2705 8.24696 13.9688 8.51114C14.6307 8.76547 15.4583 9.21653 16.2424 9.19264C16.7735 9.17719 17.3019 8.90037 17.8373 8.70505C19.4054 8.13876 20.9427 7.48957 22.969 7.7945C25.4041 8.16265 27.1325 9.24464 28.2004 10.914C26.1404 12.225 24.5118 14.2007 24.7901 17.5745C25.0374 20.6392 26.8191 22.4322 29.0449 23.4889Z" fill="black"/>
</g>
</g>
</g>
</svg>
