<svg width="25" height="24" viewBox="0 0 25 24" fill="none" xmlns="http://www.w3.org/2000/svg">
<g id="Group">
<path id="Vector" d="M9.49999 14.5714H6.71426C6.59593 14.5714 6.49995 14.4755 6.49995 14.3571V12.4134H4.78569V14.3571C4.78569 14.4754 4.68976 14.5714 4.57138 14.5714H4.35708C4.12038 14.5714 3.92853 14.7633 3.92853 15V20.1428C3.92853 20.3795 4.12043 20.5714 4.35708 20.5714H9.49994C9.73664 20.5714 9.92849 20.3795 9.92849 20.1428V15C9.92854 14.7633 9.73664 14.5714 9.49999 14.5714ZM8.21427 18.4432C8.21427 18.6718 8.02895 18.8571 7.80033 18.8571H6.05673C5.82812 18.8571 5.64285 18.6718 5.64285 18.4432V16.6996C5.64285 16.471 5.82817 16.2857 6.05673 16.2857H7.80033C8.02895 16.2857 8.21427 16.471 8.21427 16.6996V18.4432Z" fill="#3E4F55"/>
<g id="Group_2">
<g id="Group_3">
<g id="Group_4">
<path id="Vector_2" d="M5.52424 14.5714H6.71423C6.5959 14.5714 6.49992 14.4755 6.49992 14.3571V12.4134H5.30994V14.3571C5.30994 14.4755 5.40586 14.5714 5.52424 14.5714Z" fill="#303D42"/>
</g>
<g id="Group_5">
<path id="Vector_3" d="M9.50005 14.5714H8.31006C8.54676 14.5714 8.73861 14.7633 8.73861 15V20.1428C8.73861 20.3795 8.54676 20.5714 8.31006 20.5714H9.50005C9.73675 20.5714 9.9286 20.3795 9.9286 20.1428V15C9.9286 14.7633 9.7367 14.5714 9.50005 14.5714Z" fill="#303D42"/>
</g>
</g>
</g>
<g id="Group_6">
<path id="Vector_4" d="M9.5 3.4285H4.35714C4.12044 3.4285 3.92859 3.6204 3.92859 3.85705V8.9999C3.92859 9.23661 4.12049 9.42846 4.35714 9.42846H7.99998C8.11831 9.42846 8.21428 9.52438 8.21428 9.64276V11.651H9.92855V3.8571C9.92855 3.6204 9.73665 3.4285 9.5 3.4285ZM8.21428 7.3003C8.21428 7.52892 8.02896 7.71424 7.80034 7.71424H6.05675C5.82813 7.71424 5.64286 7.52892 5.64286 7.3003V5.5567C5.64286 5.32809 5.82818 5.14277 6.05675 5.14277H7.80034C8.02896 5.14277 8.21428 5.32809 8.21428 5.5567V7.3003Z" fill="#3E4F55"/>
<path id="Vector_5" d="M20.6428 3.42853H15.4999C15.2632 3.42853 15.0714 3.62043 15.0714 3.85708V6.64281C15.0714 6.76114 14.9754 6.85711 14.8571 6.85711H12.9138C12.6852 6.85711 12.4999 7.04244 12.4999 7.27105V8.15749C12.4999 8.38606 12.6853 8.57138 12.9138 8.57138H14.8571C14.9754 8.57138 15.0714 8.66731 15.0714 8.78568V8.99999C15.0714 9.23669 15.2632 9.42854 15.4999 9.42854H20.6428C20.8795 9.42854 21.0713 9.23664 21.0713 8.99999V3.85713C21.0714 3.62043 20.8795 3.42853 20.6428 3.42853ZM19.3571 7.30033C19.3571 7.52895 19.1717 7.71427 18.9431 7.71427H17.1995C16.9709 7.71427 16.7856 7.52895 16.7856 7.30033V5.55673C16.7856 5.32812 16.971 5.1428 17.1995 5.1428H18.9431C19.1717 5.1428 19.3571 5.32812 19.3571 5.55673V7.30033Z" fill="#3E4F55"/>
<path id="Vector_6" d="M12.9554 5.14285H12.0447C11.8228 5.14285 11.6429 4.96295 11.6429 4.74106V3.83031C11.6429 3.60843 11.8228 3.42853 12.0447 3.42853H12.9554C13.1773 3.42853 13.3571 3.60843 13.3571 3.83031V4.74101C13.3571 4.96295 13.1773 5.14285 12.9554 5.14285Z" fill="#3E4F55"/>
</g>
<path id="Vector_7" d="M20.6428 3.4285H19.4528C19.6895 3.4285 19.8814 3.6204 19.8814 3.85705V8.9999C19.8814 9.23661 19.6895 9.42846 19.4528 9.42846H20.6428C20.8795 9.42846 21.0714 9.23656 21.0714 8.9999V3.85705C21.0714 3.6204 20.8795 3.4285 20.6428 3.4285Z" fill="#303D42"/>
<path id="Vector_8" d="M9.49992 3.4285H8.30994C8.54664 3.4285 8.73849 3.6204 8.73849 3.85705V11.651H9.92848V3.8571C9.92848 3.6204 9.73658 3.4285 9.49992 3.4285Z" fill="#303D42"/>
<path id="Vector_9" d="M12.9432 3.4285H12.0567C12.0031 3.4285 11.952 3.43904 11.905 3.45763C12.0584 3.5182 12.1671 3.66746 12.1671 3.84244V4.72893C12.1671 4.90385 12.0584 5.05317 11.905 5.11374C11.952 5.13232 12.0031 5.14287 12.0567 5.14287H12.9432C13.1718 5.14287 13.3571 4.95754 13.3571 4.72898V3.84244C13.3572 3.61382 13.1718 3.4285 12.9432 3.4285Z" fill="#303D42"/>
<path id="Vector_10" d="M12.9553 20.5714H12.0446C11.8227 20.5714 11.6428 20.3915 11.6428 20.1696V19.2589C11.6428 19.037 11.8227 18.8571 12.0446 18.8571H12.9553C13.1772 18.8571 13.3571 19.037 13.3571 19.2589V20.1696C13.3571 20.3915 13.1772 20.5714 12.9553 20.5714Z" fill="#3E4F55"/>
<path id="Vector_11" d="M19.3571 15V17.7857C19.3571 17.904 19.2612 18 19.1428 18H17C16.8817 18 16.7857 17.9041 16.7857 17.7857V15C16.7857 14.7633 16.5938 14.5714 16.3571 14.5714H12.9286C12.6919 14.5714 12.5 14.7633 12.5 15V15.8571C12.5 16.0938 12.6919 16.2857 12.9286 16.2857H14.8571C14.9755 16.2857 15.0714 16.3816 15.0714 16.5V19.2857C15.0714 19.5224 15.2633 19.7143 15.5 19.7143H20.6428C20.8795 19.7143 21.0714 19.5224 21.0714 19.2857V15C21.0714 14.7633 20.8795 14.5715 20.6428 14.5715H19.7857C19.549 14.5714 19.3571 14.7633 19.3571 15Z" fill="#3E4F55"/>
<path id="Vector_12" d="M1.88654 11.1428H23.1132V12.8571H1.88654V11.1428Z" fill="#36F595"/>
<g id="Group_7">
<path id="Vector_13" d="M2.21426 4.71425V2.14282C2.21426 1.90612 2.40611 1.71427 2.64281 1.71427H5.21424C5.45094 1.71427 5.64279 1.52242 5.64279 1.28571V0.428554C5.64279 0.191853 5.45094 0 5.21424 0H1.3571C0.883694 0 0.499939 0.383755 0.499939 0.857159V4.7143C0.499939 4.951 0.691792 5.14285 0.928493 5.14285H1.78565C2.02235 5.14285 2.21426 4.95095 2.21426 4.71425Z" fill="#77D4F5"/>
<path id="Vector_14" d="M1.78577 18.8571H0.928615C0.691914 18.8571 0.500061 19.0489 0.500061 19.2856V23.1428C0.500061 23.6162 0.883816 23.9999 1.35722 23.9999H5.21436C5.45106 23.9999 5.64291 23.8081 5.64291 23.5714V22.7142C5.64291 22.4775 5.45106 22.2857 5.21436 22.2857H2.64293C2.40623 22.2857 2.21438 22.0938 2.21438 21.8571V19.2857C2.21433 19.049 2.02243 18.8571 1.78577 18.8571Z" fill="#77D4F5"/>
<path id="Vector_15" d="M23.2143 5.14285H24.0715C24.3082 5.14285 24.5 4.951 24.5 4.7143V0.857159C24.5 0.383755 24.1163 0 23.6429 0H19.7857C19.549 0 19.3572 0.191853 19.3572 0.428554V1.28571C19.3572 1.52242 19.549 1.71427 19.7857 1.71427H22.3572C22.5939 1.71427 22.7857 1.90612 22.7857 2.14282V4.71425C22.7858 4.95095 22.9776 5.14285 23.2143 5.14285Z" fill="#77D4F5"/>
<path id="Vector_16" d="M22.7857 19.2857V21.8571C22.7857 22.0938 22.5939 22.2857 22.3572 22.2857H19.7857C19.549 22.2857 19.3572 22.4776 19.3572 22.7142V23.5714C19.3572 23.8081 19.549 23.9999 19.7857 23.9999H23.6429C24.1163 23.9999 24.5 23.6162 24.5 23.1428V19.2856C24.5 19.0489 24.3082 18.8571 24.0715 18.8571H23.2143C22.9776 18.8571 22.7857 19.049 22.7857 19.2857Z" fill="#77D4F5"/>
</g>
<path id="Vector_17" d="M1.92854 13.2857C2.63862 13.2857 3.21425 12.71 3.21425 11.9999C3.21425 11.2899 2.63862 10.7142 1.92854 10.7142C1.21846 10.7142 0.642822 11.2899 0.642822 11.9999C0.642822 12.71 1.21846 13.2857 1.92854 13.2857Z" fill="#E9F1FF"/>
<path id="Vector_18" d="M23.0714 13.2857C23.7814 13.2857 24.3571 12.71 24.3571 11.9999C24.3571 11.2899 23.7814 10.7142 23.0714 10.7142C22.3613 10.7142 21.7856 11.2899 21.7856 11.9999C21.7856 12.71 22.3613 13.2857 23.0714 13.2857Z" fill="#E9F1FF"/>
<g id="Group_8">
<g id="Group_9">
<g id="Group_10">
<path id="Vector_19" d="M1.0242 2.1428V4.71423C1.0242 4.89191 0.916069 5.04429 0.762085 5.10928C0.813262 5.13088 0.869512 5.14283 0.928525 5.14283H1.78568C2.02239 5.14283 2.21424 4.95098 2.21424 4.71428V2.14285C2.21424 1.90615 2.40609 1.71429 2.64279 1.71429H1.45275C1.21605 1.71424 1.0242 1.90615 1.0242 2.1428Z" fill="#68B3F3"/>
<path id="Vector_20" d="M5.2141 0H4.02411C4.26081 0 4.45266 0.191853 4.45266 0.428554V1.28571C4.45266 1.52242 4.26081 1.71427 4.02411 1.71427H5.2141C5.4508 1.71427 5.64265 1.52242 5.64265 1.28571V0.428554C5.6427 0.191853 5.4508 0 5.2141 0Z" fill="#68B3F3"/>
</g>
</g>
<g id="Group_11">
<g id="Group_12">
<path id="Vector_21" d="M1.02936 19.2857V21.8571C1.02936 22.0938 1.22127 22.2857 1.45792 22.2857H2.64268C2.40598 22.2857 2.21413 22.0938 2.21413 21.8571V19.2857C2.21413 19.049 2.02228 18.8571 1.78557 18.8571H0.928415C0.870357 18.8571 0.815062 18.8688 0.764587 18.8897C0.919978 18.9541 1.02936 19.1071 1.02936 19.2857Z" fill="#68B3F3"/>
<path id="Vector_22" d="M5.21412 22.2857H4.02936C4.26606 22.2857 4.45791 22.4776 4.45791 22.7143V23.5714C4.45791 23.8082 4.26606 24 4.02936 24H5.21412C5.45082 24 5.64268 23.8081 5.64268 23.5714V22.7143C5.64273 22.4776 5.45082 22.2857 5.21412 22.2857Z" fill="#68B3F3"/>
</g>
</g>
<g id="Group_13">
<path id="Vector_23" d="M23.6428 0H22.4528C22.9262 0 23.31 0.383755 23.31 0.857159V4.7143C23.31 4.89199 23.2018 5.04437 23.0479 5.10935C23.099 5.13095 23.1552 5.1429 23.2143 5.1429H24.0714C24.3081 5.1429 24.4999 4.95105 24.4999 4.71435V0.857209C24.4999 0.383755 24.1162 0 23.6428 0Z" fill="#68B3F3"/>
<path id="Vector_24" d="M24.0712 18.8571H23.2141C23.155 18.8571 23.0988 18.869 23.0476 18.8906C23.2017 18.9556 23.3097 19.108 23.3097 19.2857V23.1428C23.3097 23.6162 22.926 24 22.4526 24H23.6426C24.116 24 24.4997 23.6162 24.4997 23.1428V19.2857C24.4998 19.049 24.3079 18.8571 24.0712 18.8571Z" fill="#68B3F3"/>
</g>
</g>
<path id="Vector_25" d="M23.0714 10.7142C22.8566 10.7142 22.6543 10.7672 22.4764 10.8603C22.8868 11.075 23.1671 11.5046 23.1671 11.9999C23.1671 12.4952 22.8869 12.9249 22.4764 13.1396C22.6543 13.2327 22.8566 13.2857 23.0714 13.2857C23.7814 13.2857 24.3571 12.71 24.3571 11.9999C24.3571 11.2898 23.7814 10.7142 23.0714 10.7142Z" fill="#D7E4F7"/>
<path id="Vector_26" d="M1.92849 10.7142C1.71374 10.7142 1.51144 10.7672 1.3335 10.8603C1.74397 11.075 2.02422 11.5046 2.02422 11.9999C2.02422 12.4952 1.74397 12.9249 1.3335 13.1396C1.51144 13.2327 1.71374 13.2857 1.92849 13.2857C2.63855 13.2857 3.2142 12.71 3.2142 11.9999C3.2142 11.2898 2.63855 10.7142 1.92849 10.7142Z" fill="#D7E4F7"/>
<g id="Group_14">
<g id="Group_15">
<g id="Group_16">
<path id="Vector_27" d="M15.5956 15V17.7857C15.5956 17.904 15.6915 18 15.8099 18H16.9999C16.8816 18 16.7856 17.9041 16.7856 17.7857V15C16.7856 14.7633 16.5937 14.5714 16.357 14.5714H15.1671C15.4038 14.5714 15.5956 14.7633 15.5956 15Z" fill="#303D42"/>
</g>
<g id="Group_17">
<path id="Vector_28" d="M20.6427 14.5714H19.7855C19.7265 14.5714 19.6703 14.5834 19.6191 14.605C19.7731 14.6699 19.8813 14.8223 19.8813 15V19.2857C19.8813 19.5224 19.6894 19.7143 19.4527 19.7143H20.6427C20.8794 19.7143 21.0712 19.5224 21.0712 19.2857V15C21.0713 14.7633 20.8794 14.5714 20.6427 14.5714Z" fill="#303D42"/>
</g>
</g>
</g>
<path id="Vector_29" d="M12.9432 18.8571H12.0567C12.0031 18.8571 11.952 18.8676 11.905 18.8862C12.0584 18.9468 12.1671 19.096 12.1671 19.271V20.1575C12.1671 20.3324 12.0584 20.4817 11.905 20.5423C11.952 20.5609 12.0031 20.5714 12.0567 20.5714H12.9432C13.1718 20.5714 13.3571 20.386 13.3571 20.1574V19.271C13.3572 19.0424 13.1718 18.8571 12.9432 18.8571Z" fill="#303D42"/>
</g>
</svg>
