<svg width="25" height="24" viewBox="0 0 25 24" fill="none" xmlns="http://www.w3.org/2000/svg">
<g id="Group">
<path id="Vector" d="M24.5 22H0.5V3.99327L1.5218 3H23.2892L24.5 3.99327V22Z" fill="#F9F6F9"/>
<path id="Vector_2" d="M23.5 3V22H24.5V3.49733L23.5 3Z" fill="#DDDAEC"/>
<path id="Vector_3" d="M21.1414 0H3.85862C2.70998 0 1.68796 0.698029 1.31379 1.73802L0.5 4H24.5L23.6862 1.73807C23.3121 0.698029 22.2901 0 21.1414 0Z" fill="#80B4FB"/>
<path id="Vector_4" d="M23.6073 1.73804C23.1968 0.698038 22.0756 0 20.8155 0H19.5C20.76 0 21.8812 0.698038 22.2917 1.73804L23.1845 4H24.5L23.6073 1.73804Z" fill="#61A2F9"/>
<path id="Vector_5" d="M24.5 22H0.5V23.0504C0.5 23.5749 1.12117 24 1.88731 24H23.1126C23.8788 24 24.4999 23.5749 24.4999 23.0504V22H24.5Z" fill="#407093"/>
<path id="Vector_6" d="M21.6808 21.5164V22.8207C21.6808 23.472 21.1529 24 20.5016 24H21.5209C22.1722 24 22.7002 23.472 22.7002 22.8207V21.5164H21.6808Z" fill="#365E7D"/>
<path id="Vector_7" d="M6.04475 2.55925C6.47781 2.55925 6.82887 2.20818 6.82887 1.77512C6.82887 1.34206 6.47781 0.990997 6.04475 0.990997C5.61169 0.990997 5.26062 1.34206 5.26062 1.77512C5.26062 2.20818 5.61169 2.55925 6.04475 2.55925Z" fill="#F9F6F9"/>
<path id="Vector_8" d="M9.5059 2.55925C9.93896 2.55925 10.29 2.20818 10.29 1.77512C10.29 1.34206 9.93896 0.990997 9.5059 0.990997C9.07284 0.990997 8.72177 1.34206 8.72177 1.77512C8.72177 2.20818 9.07284 2.55925 9.5059 2.55925Z" fill="#F9F6F9"/>
<g id="Group_2">
<path id="Vector_9" d="M13.13 2.13731H11.8973C11.6973 2.13731 11.5351 1.97517 11.5351 1.77515C11.5351 1.57513 11.6973 1.41299 11.8973 1.41299H13.13C13.3301 1.41299 13.4922 1.57513 13.4922 1.77515C13.4922 1.97517 13.3301 2.13731 13.13 2.13731Z" fill="#F9F6F9"/>
</g>
<g id="Group_3">
<path id="Vector_10" d="M16.4347 2.13731H15.202C15.0019 2.13731 14.8398 1.97517 14.8398 1.77515C14.8398 1.57513 15.002 1.41299 15.202 1.41299H16.4347C16.6348 1.41299 16.7968 1.57513 16.7968 1.77515C16.7968 1.97517 16.6348 2.13731 16.4347 2.13731Z" fill="#F9F6F9"/>
</g>
<g id="Group_4">
<path id="Vector_11" d="M19.7394 2.13731H18.5067C18.3066 2.13731 18.1445 1.97517 18.1445 1.77515C18.1445 1.57513 18.3066 1.41299 18.5067 1.41299H19.7394C19.9394 1.41299 20.1015 1.57513 20.1015 1.77515C20.1015 1.97517 19.9394 2.13731 19.7394 2.13731Z" fill="#F9F6F9"/>
</g>
<path id="Vector_12" d="M12.4908 19.1353C16.137 19.1353 19.0928 16.1795 19.0928 12.5333C19.0928 8.88721 16.137 5.93143 12.4908 5.93143C8.8447 5.93143 5.88892 8.88721 5.88892 12.5333C5.88892 16.1795 8.8447 19.1353 12.4908 19.1353Z" fill="#407093"/>
<path id="Vector_13" d="M12.4909 5.93137C12.2921 5.93137 12.0956 5.94065 11.9014 5.95785C15.2713 6.25612 17.9139 9.08587 17.9139 12.5333C17.9139 15.9807 15.2713 18.8105 11.9014 19.1087C12.0956 19.1259 12.2921 19.1352 12.4909 19.1352C16.137 19.1352 19.0928 16.1794 19.0928 12.5332C19.0928 8.88707 16.137 5.93137 12.4909 5.93137Z" fill="#365E7D"/>
<path id="Vector_14" d="M24.5 7H21.3752C20.8918 7 20.5 6.55229 20.5 6C20.5 5.44771 20.8918 5 21.3752 5H24.5V7Z" fill="#80B4FB"/>
<path id="Vector_15" d="M23.5 5H24.5V7H23.5V5Z" fill="#61A2F9"/>
<path id="Vector_16" d="M0.5 18H3.62477C4.10815 18 4.5 18.4477 4.5 19C4.5 19.5523 4.10815 20 3.62477 20H0.5V18Z" fill="#80B4FB"/>
<g id="Group_5">
<path id="Vector_17" d="M16.9388 13.1622C16.7387 13.1622 16.5766 13 16.5766 12.8V12.2667C16.5766 12.0666 16.7388 11.9045 16.9388 11.9045C17.1388 11.9045 17.3009 12.0667 17.3009 12.2667V12.8C17.3009 13 17.1388 13.1622 16.9388 13.1622Z" fill="#365E7D"/>
</g>
<path id="Vector_18" d="M12.1727 12.4646C13.1459 13.1121 14.3588 13.1229 15.409 12.9339C15.4014 12.8842 15.3975 12.8334 15.3975 12.7821V12.2845C15.3975 11.8735 15.6485 11.5043 16.0307 11.3531C16.6222 11.119 16.8508 10.3985 16.4981 9.86902C15.6375 8.57706 14.1689 7.72487 12.5009 7.72145C9.87876 7.71606 7.71594 9.84277 7.67938 12.4647C7.67938 12.4646 9.97255 11.0011 12.1727 12.4646Z" fill="#F9F6F9"/>
<path id="Vector_19" d="M16.4981 9.86896C15.6375 8.57699 14.1689 7.72481 12.5009 7.72138C12.3102 7.72101 12.122 7.73221 11.9367 7.75377C13.3764 7.91948 14.6227 8.72006 15.388 9.86901C15.7407 10.3985 15.5122 11.119 14.9206 11.3531C14.5384 11.5043 14.2874 11.8736 14.2874 12.2845C14.2906 12.7694 14.2723 12.855 14.3216 13.0398C14.6922 13.0372 15.0596 12.9967 15.409 12.9338C15.3898 12.8084 15.4005 12.7573 15.3974 12.2845C15.3974 11.8735 15.6484 11.5042 16.0306 11.353C16.6223 11.119 16.8508 10.3985 16.4981 9.86896Z" fill="#DDDAEC"/>
<path id="Vector_20" d="M12.4909 17.3452C14.1651 17.3452 15.6394 16.4901 16.5013 15.1929C16.8521 14.6649 16.6203 13.9469 16.0309 13.7136L16.0307 13.7136C15.6963 13.5812 15.4623 13.282 15.409 12.9338C14.3588 13.1229 13.1459 13.1121 12.1727 12.4646C9.97254 11.001 7.67937 12.4646 7.67937 12.4646C7.64187 15.1536 9.8104 17.3452 12.4909 17.3452Z" fill="#80B4FB"/>
<path id="Vector_21" d="M16.0309 13.7136L16.0307 13.7136C15.6963 13.5812 15.4623 13.282 15.409 12.9338C15.0596 12.9967 14.6922 13.0373 14.3217 13.0399C14.4021 13.3418 14.6208 13.5949 14.9207 13.7136L14.9209 13.7136C15.5103 13.9468 15.7421 14.6649 15.3913 15.1929C14.6259 16.3449 13.3774 17.1476 11.935 17.3131C12.1174 17.3341 12.3028 17.3452 12.4909 17.3452C14.1651 17.3452 15.6395 16.4901 16.5013 15.1929C16.8521 14.6649 16.6203 13.9468 16.0309 13.7136Z" fill="#61A2F9"/>
<g id="Group_6">
<g id="Group_7">
<path id="Vector_22" d="M5.68783 23.1204H4.53077C4.33075 23.1204 4.16861 22.9583 4.16861 22.7582C4.16861 22.5582 4.33075 22.3961 4.53077 22.3961H5.68788C5.88789 22.3961 6.05003 22.5582 6.05003 22.7582C6.05003 22.9583 5.88784 23.1204 5.68783 23.1204Z" fill="#365E7D"/>
</g>
<g id="Group_8">
<path id="Vector_23" d="M20.4509 23.1204H19.2938C19.0938 23.1204 18.9317 22.9583 18.9317 22.7582C18.9317 22.5582 19.0938 22.3961 19.2938 22.3961H20.4509C20.651 22.3961 20.813 22.5582 20.813 22.7582C20.8131 22.9583 20.651 23.1204 20.4509 23.1204Z" fill="#365E7D"/>
</g>
</g>
</g>
</svg>
