<svg width="140" height="140" viewBox="0 0 140 140" fill="none" xmlns="http://www.w3.org/2000/svg">
<g id="Detergent" clip-path="url(#clip0_2122_5525)">
<g id="Group">
<g id="Group_2">
<path id="Vector" d="M124.083 104.592C130.221 94.4864 133.755 82.6241 133.755 69.9361C133.755 33.0123 103.823 3.07971 66.899 3.07971C29.9751 3.07971 0.0425415 33.0123 0.0425415 69.9361C0.0425415 82.6241 3.57693 94.4864 9.71489 104.592H124.083Z" fill="#C8EFFE"/>
</g>
<path id="Vector_2" d="M97.7323 104.592V21.09H72.7136C71.7675 21.09 70.8997 20.5437 70.5021 19.6978C69.6532 17.8913 67.8159 16.7239 65.8211 16.7239H46.1462C44.1514 16.7239 42.3141 17.8913 41.4651 19.6978C41.0678 20.5437 40.1998 21.09 39.2537 21.09H14.2349V104.592H97.7323Z" fill="#01D0FB"/>
<g id="Group_3">
<path id="Vector_3" d="M14.2349 21.09H25.6985V104.592H14.2349V21.09Z" fill="#01C0FA"/>
</g>
<path id="Vector_4" d="M26.2314 104.592L97.7323 33.0914V21.09H72.7136C71.7675 21.09 70.8997 20.5437 70.5021 19.6978C70.2164 19.0895 69.8164 18.556 69.3383 18.1129L14.2349 73.2162V104.592H26.2314Z" fill="#62DBFB"/>
<path id="Vector_5" d="M14.2349 73.2162V104.592H25.6985V61.7527L14.2349 73.2162Z" fill="#01D0FB"/>
<path id="Vector_6" d="M109.647 82.6615L100.526 71.9233C96.7038 67.4245 89.7603 67.4245 85.9388 71.9233L76.8169 82.6615H109.647Z" fill="white"/>
<path id="Vector_7" d="M96.6902 69.1917C93.0379 67.782 88.6833 68.6924 85.9386 71.9233L76.8167 82.6615H83.7329L92.8548 71.9233C93.9322 70.6555 95.257 69.7451 96.6902 69.1917Z" fill="#F2FBFF"/>
<path id="Vector_8" d="M101.553 82.6615C101.554 82.6492 101.555 82.6375 101.555 82.6252C101.555 81.495 100.639 80.5786 99.5085 80.5786C98.3783 80.5786 97.4619 81.495 97.4619 82.6252C97.4619 82.6375 97.4635 82.6495 97.4638 82.6615H101.553Z" fill="#C8EFFE"/>
<path id="Vector_9" d="M138.144 82.3886H74.0027C73.064 82.3886 72.4058 83.3145 72.7139 84.2011L79.8039 104.592H106.947L111.07 92.2774C111.629 90.6087 113.191 89.4836 114.951 89.4836H134.279C137.301 89.4836 139.751 87.0378 139.759 84.018C139.761 83.1222 139.04 82.3886 138.144 82.3886Z" fill="#A2E62E"/>
<path id="Vector_10" d="M85.729 82.3886H74.0027C73.064 82.3886 72.4058 83.3145 72.7139 84.2011L79.8039 104.592H91.5303L84.4402 84.2011C84.1321 83.3145 84.7903 82.3886 85.729 82.3886Z" fill="#97D729"/>
<path id="Vector_11" d="M90.138 104.592L84.1349 97.5255C77.9216 90.2111 66.6324 90.2111 60.4188 97.5255L54.416 104.592H90.138Z" fill="white"/>
<path id="Vector_12" d="M75.7898 92.443C70.3518 91.1916 64.3634 92.8826 60.4191 97.5255L54.416 104.592H61.4413L67.4445 97.5255C69.7138 94.8542 72.6609 93.1629 75.7898 92.443Z" fill="#F2FBFF"/>
<path id="Vector_13" d="M68.963 104.592C69.0386 104.379 69.082 104.15 69.082 103.91C69.082 102.78 68.1657 101.864 67.0354 101.864C65.9051 101.864 64.9888 102.78 64.9888 103.91C64.9888 104.15 65.0322 104.379 65.1077 104.592H68.963Z" fill="#C8EFFE"/>
<path id="Vector_14" d="M101.009 3.07971H10.9579C9.45076 3.07971 8.22906 4.30141 8.22906 5.80855V18.6341C8.22906 20.1412 9.45076 21.3629 10.9579 21.3629H39.254C40.3035 21.3629 41.266 20.7636 41.7124 19.8137C42.4942 18.1494 44.1853 16.9968 46.1462 16.9968H65.8214C67.7823 16.9968 69.4731 18.1494 70.2552 19.8137C70.7016 20.7636 71.6641 21.3629 72.7136 21.3629H101.009C102.517 21.3629 103.738 20.1412 103.738 18.6341V5.80855C103.738 4.30141 102.517 3.07971 101.009 3.07971Z" fill="#A2E62E"/>
<g id="Group_4">
<path id="Vector_15" d="M23.5105 18.6341V5.80855C23.5105 4.30141 24.7322 3.07971 26.2394 3.07971H10.9579C9.45076 3.07971 8.22906 4.30141 8.22906 5.80855V18.6341C8.22906 20.1412 9.45076 21.3629 10.9579 21.3629H26.2394C24.7322 21.3629 23.5105 20.1412 23.5105 18.6341Z" fill="#97D729"/>
</g>
<path id="Vector_16" d="M74.0196 39.8458H70.247V66.4651C70.247 67.1494 69.69 67.7064 69.0056 67.7064H42.9617C42.2773 67.7064 41.7206 67.1494 41.7206 66.4651V39.8458H37.9477C34.2812 44.0499 32.0597 49.5468 32.0597 55.5631C32.0597 68.7761 42.7709 79.4871 55.9837 79.4871C69.1964 79.4871 79.9076 68.7761 79.9076 55.5631C79.9076 49.5468 77.6861 44.0496 74.0196 39.8458Z" fill="#DFF6FD"/>
<path id="Vector_17" d="M46.9231 67.7064H42.9617C42.2773 67.7064 41.7206 67.1494 41.7206 66.4651V39.8458H37.9477C34.2812 44.0499 32.0597 49.5468 32.0597 55.5631C32.0597 68.7761 42.7709 79.4871 55.9837 79.4871C57.9752 79.4871 59.9094 79.242 61.7592 78.7836C55.4551 77.2208 50.1412 73.1559 46.9231 67.7064Z" fill="#C8EFFE"/>
<g id="Group_5">
<path id="Vector_18" d="M78.1914 29.8223H33.7758C32.9394 29.8223 32.2616 30.5001 32.2616 31.3365V38.6045C32.2616 39.4409 32.9394 40.1187 33.7758 40.1187H41.4477V66.4654C41.4477 67.3017 42.1255 67.9796 42.9619 67.9796H69.0056C69.8417 67.9796 70.5199 67.3017 70.5199 66.4654V40.1187H78.1917C79.0281 40.1187 79.7059 39.4409 79.7059 38.6045V31.3365C79.7057 30.5001 79.0278 29.8223 78.1914 29.8223Z" fill="#FE9738"/>
<g id="Group_6">
<path id="Vector_19" d="M43.0626 36.7874H38.4192C37.5831 36.7874 36.905 36.1095 36.905 35.2731V29.8223H33.7758C32.9394 29.8223 32.2616 30.5001 32.2616 31.3365V38.6045C32.2616 39.4406 32.9394 40.1187 33.7758 40.1187H41.4477V66.4654C41.4477 67.3015 42.1255 67.9796 42.9619 67.9796H46.0911V39.8158C46.0911 38.1433 44.7351 36.7874 43.0626 36.7874Z" fill="#FE860A"/>
</g>
<path id="Vector_20" d="M50.1289 29.8223C50.1289 33.0557 52.7502 35.677 55.9836 35.677C59.217 35.677 61.8383 33.0557 61.8383 29.8223H50.1289Z" fill="#FE7701"/>
</g>
<g id="Group_7">
<path id="Vector_21" d="M41.7223 46.0179L43.2469 48.8057C43.3118 48.9244 43.4095 49.0221 43.5285 49.0873L46.3163 50.6119C46.8075 50.8804 46.8075 51.5858 46.3163 51.8544L43.5285 53.379C43.4098 53.4439 43.3121 53.5416 43.2469 53.6603L41.7223 56.4481C41.4538 56.9393 40.7484 56.9393 40.4798 56.4481L38.9552 53.6603C38.8903 53.5416 38.7926 53.4439 38.6736 53.379L35.8858 51.8544C35.3947 51.5858 35.3947 50.8804 35.8858 50.6119L38.6736 49.0873C38.7923 49.0224 38.89 48.9247 38.9552 48.8057L40.4798 46.0179C40.7484 45.5267 41.4535 45.5267 41.7223 46.0179Z" fill="#FFE177"/>
<g id="Group_8">
<path id="Vector_22" d="M42.6732 54.2544L41.1486 51.4666C41.0836 51.3479 40.9859 51.2502 40.867 51.185L38.0792 49.6604C38.0061 49.6203 37.9474 49.5687 37.8958 49.5119L35.8855 50.6114C35.3943 50.8799 35.3943 51.5853 35.8855 51.8538L38.6733 53.3784C38.792 53.4434 38.8897 53.5411 38.9549 53.66L40.4795 56.4478C40.748 56.939 41.4534 56.939 41.7219 56.4478L42.8214 54.4372C42.7652 54.3862 42.7133 54.3275 42.6732 54.2544Z" fill="#FFD15B"/>
</g>
</g>
<path id="Vector_23" d="M78.5615 26.0974L80.0861 28.8852C80.151 29.0039 80.2487 29.1016 80.3674 29.1668L83.1552 30.6914C83.6464 30.9599 83.6464 31.6653 83.1552 31.9339L80.3674 33.4585C80.2487 33.5234 80.151 33.6211 80.0861 33.7401L78.5615 36.5278C78.293 37.019 77.5876 37.019 77.319 36.5278L75.7944 33.7401C75.7295 33.6214 75.6318 33.5237 75.5131 33.4585L72.7253 31.9339C72.2341 31.6653 72.2341 30.9599 72.7253 30.6914L75.5131 29.1668C75.6318 29.1019 75.7295 29.0042 75.7944 28.8852L77.319 26.0974C77.5876 25.6062 78.2927 25.6062 78.5615 26.0974Z" fill="#FFE177"/>
<g id="Group_9">
<path id="Vector_24" d="M79.5018 34.3445L77.9772 31.5567C77.9123 31.438 77.8146 31.3403 77.6956 31.2751L74.9078 29.7505C74.8333 29.7098 74.7739 29.6566 74.722 29.5988L72.7248 30.6911C72.2336 30.9597 72.2336 31.6651 72.7248 31.9336L75.5126 33.4582C75.6313 33.5231 75.7289 33.6208 75.7942 33.7398L77.3188 36.5276C77.5873 37.0188 78.2927 37.0188 78.5612 36.5276L79.6536 34.5303C79.5957 34.4785 79.5428 34.419 79.5018 34.3445Z" fill="#FFD15B"/>
</g>
<g id="Group_10">
<path id="Vector_25" d="M67.9191 60.4807L69.4437 63.2685C69.5087 63.3872 69.6064 63.4849 69.7253 63.5501L72.5131 65.0747C73.0043 65.3432 73.0043 66.0486 72.5131 66.3172L69.7253 67.8418C69.6066 67.9067 69.5089 68.0044 69.4437 68.1231L67.9191 70.9109C67.6506 71.4021 66.9452 71.4021 66.6767 70.9109L65.1521 68.1231C65.0871 68.0044 64.9894 67.9067 64.8705 67.8418L62.0827 66.3172C61.5915 66.0486 61.5915 65.3432 62.0827 65.0747L64.8705 63.5501C64.9892 63.4852 65.0869 63.3875 65.1521 63.2685L66.6767 60.4807C66.9452 59.9895 67.6503 59.9895 67.9191 60.4807Z" fill="#FFE177"/>
<g id="Group_11">
<path id="Vector_26" d="M68.8594 68.7278L67.3348 65.94C67.2698 65.8213 67.1721 65.7236 67.0532 65.6584L64.2654 64.1338C64.1909 64.0931 64.1314 64.0399 64.0796 63.9821L62.0823 65.0744C61.5911 65.343 61.5911 66.0484 62.0823 66.3169L64.8701 67.8415C64.9888 67.9064 65.0865 68.0041 65.1517 68.1231L66.6763 70.9109C66.9448 71.4021 67.6502 71.4021 67.9188 70.9109L69.0111 68.9136C68.9533 68.8618 68.9003 68.8023 68.8594 68.7278Z" fill="#FFD15B"/>
</g>
</g>
<g id="Group_12">
<path id="Vector_27" d="M18.4987 116.053C30.6748 128.83 47.8561 136.793 66.899 136.793C85.9419 136.793 103.123 128.83 115.299 116.053H18.4987Z" fill="#60B7FF"/>
</g>
<path id="Vector_28" d="M115.036 116.326C118.536 112.694 121.631 108.668 124.244 104.319H9.55359C12.1667 108.668 15.2615 112.694 18.7623 116.326H115.036Z" fill="#26A6FE"/>
<path id="Vector_29" d="M32.1707 108.577C30.9687 107.206 29.8223 105.785 28.7324 104.319H9.55359C12.1667 108.668 15.2615 112.694 18.7623 116.326H115.036C116.704 114.595 118.278 112.771 119.754 110.869H37.272C35.3225 110.869 33.456 110.043 32.1707 108.577Z" fill="#0593FC"/>
<path id="Vector_30" d="M27.4673 95.6554C31.009 95.6554 33.8801 92.7843 33.8801 89.2427C33.8801 85.701 31.009 82.8299 27.4673 82.8299C23.9257 82.8299 21.0546 85.701 21.0546 89.2427C21.0546 92.7843 23.9257 95.6554 27.4673 95.6554Z" fill="white"/>
<path id="Vector_31" d="M25.4207 89.2427C25.4207 86.4677 27.1835 84.1048 29.6504 83.2117C28.969 82.965 28.2339 82.8299 27.4673 82.8299C23.9256 82.8299 21.0546 85.7009 21.0546 89.2427C21.0546 92.7844 23.9256 95.6554 27.4673 95.6554C28.2339 95.6554 28.969 95.5203 29.6504 95.2737C27.1835 94.3805 25.4207 92.0176 25.4207 89.2427Z" fill="#F2FBFF"/>
<path id="Vector_32" d="M63.0786 91.9715H37.9733C37.2199 91.9715 36.6089 91.3605 36.6089 90.6071V87.8782C36.6089 87.1248 37.2199 86.5138 37.9733 86.5138H63.0786C63.832 86.5138 64.443 87.1248 64.443 87.8782V90.6071C64.443 91.3605 63.832 91.9715 63.0786 91.9715Z" fill="white"/>
<path id="Vector_33" d="M45.3412 90.6071V87.8782C45.3412 87.1248 45.9521 86.5138 46.7056 86.5138H37.9733C37.2199 86.5138 36.6089 87.1248 36.6089 87.8782V90.6071C36.6089 91.3605 37.2199 91.9715 37.9733 91.9715H46.7056C45.9521 91.9715 45.3412 91.3605 45.3412 90.6071Z" fill="#F2FBFF"/>
<g id="Group_13">
<path id="Vector_34" d="M88.0474 79.7599C89.1777 79.7599 90.094 78.8436 90.094 77.7133C90.094 76.583 89.1777 75.6667 88.0474 75.6667C86.9171 75.6667 86.0008 76.583 86.0008 77.7133C86.0008 78.8436 86.9171 79.7599 88.0474 79.7599Z" fill="#C8EFFE"/>
<path id="Vector_35" d="M76.8592 100.226C77.9895 100.226 78.9058 99.3099 78.9058 98.1796C78.9058 97.0493 77.9895 96.133 76.8592 96.133C75.7289 96.133 74.8126 97.0493 74.8126 98.1796C74.8126 99.3099 75.7289 100.226 76.8592 100.226Z" fill="#C8EFFE"/>
<path id="Vector_36" d="M67.854 98.4525C68.6076 98.4525 69.2185 97.8416 69.2185 97.0881C69.2185 96.3345 68.6076 95.7236 67.854 95.7236C67.1005 95.7236 66.4896 96.3345 66.4896 97.0881C66.4896 97.8416 67.1005 98.4525 67.854 98.4525Z" fill="#C8EFFE"/>
<path id="Vector_37" d="M96.2339 75.8031C96.9875 75.8031 97.5983 75.1923 97.5983 74.4387C97.5983 73.6852 96.9875 73.0743 96.2339 73.0743C95.4804 73.0743 94.8695 73.6852 94.8695 74.4387C94.8695 75.1923 95.4804 75.8031 96.2339 75.8031Z" fill="#C8EFFE"/>
</g>
</g>
</g>
<defs>
<clipPath id="clip0_2122_5525">
<rect width="139.716" height="139.716" fill="white" transform="translate(0.0425415 0.0780029)"/>
</clipPath>
</defs>
</svg>
