<svg width="29" height="28" viewBox="0 0 29 28" fill="none" xmlns="http://www.w3.org/2000/svg">
<g id="File" clip-path="url(#clip0_2122_1292)">
<path id="Vector" d="M28.0384 5.70916L22.5699 0.240297C22.4161 0.0864063 22.2074 0 21.9898 0H9.4115C8.05454 0 6.95056 1.10398 6.95056 2.46094V13.2802C3.2643 13.6896 0.388062 16.8236 0.388062 20.6172C0.388062 24.6881 3.69999 28 7.77087 28H25.8177C27.1747 28 28.2787 26.896 28.2787 25.5391V6.28923C28.2787 6.07162 28.1923 5.86305 28.0384 5.70916ZM22.8099 2.80071L25.4779 5.46875H22.8099V2.80071ZM2.02869 20.6172C2.02869 17.4509 4.60463 14.875 7.77087 14.875C10.9371 14.875 13.5131 17.4509 13.5131 20.6172C13.5131 23.7834 10.9371 26.3594 7.77087 26.3594C4.60463 26.3594 2.02869 23.7834 2.02869 20.6172ZM25.8177 26.3594H12.4056C13.8801 25.1669 14.8878 23.4194 15.1079 21.4375H23.6302C24.0833 21.4375 24.4506 21.0702 24.4506 20.6172C24.4506 20.1642 24.0833 19.7969 23.6302 19.7969H15.1079C14.9741 18.5927 14.5498 17.4749 13.9065 16.5156H23.6302C24.0833 16.5156 24.4506 16.1483 24.4506 15.6953C24.4506 15.2423 24.0833 14.875 23.6302 14.875H12.4056C11.338 14.0117 10.0261 13.4396 8.59119 13.2802V2.46094C8.59119 2.00862 8.95918 1.64062 9.4115 1.64062H21.1693V6.28906C21.1693 6.74209 21.5366 7.10938 21.9896 7.10938H26.6381V25.5391C26.6381 25.9914 26.2701 26.3594 25.8177 26.3594Z" fill="black" fill-opacity="0.3"/>
<path id="Vector_2" d="M23.6302 9.95312H11.599C11.146 9.95312 10.7787 10.3204 10.7787 10.7734C10.7787 11.2265 11.146 11.5938 11.599 11.5938H23.6302C24.0833 11.5938 24.4506 11.2265 24.4506 10.7734C24.4506 10.3204 24.0833 9.95312 23.6302 9.95312Z" fill="black" fill-opacity="0.3"/>
<path id="Vector_3" d="M9.95837 21.4375C10.4114 21.4375 10.7787 21.0702 10.7787 20.6172C10.7787 20.1642 10.4114 19.7969 9.95837 19.7969H8.59119V17.3359C8.59119 16.8829 8.22391 16.5156 7.77087 16.5156C7.31784 16.5156 6.95056 16.8829 6.95056 17.3359V20.6172C6.95056 21.0702 7.31784 21.4375 7.77087 21.4375H9.95837Z" fill="black" fill-opacity="0.3"/>
</g>
<defs>
<clipPath id="clip0_2122_1292">
<rect width="28" height="28" fill="white" transform="translate(0.333374)"/>
</clipPath>
</defs>
</svg>
