<svg width="28" height="28" viewBox="0 0 28 28" fill="none" xmlns="http://www.w3.org/2000/svg">
<g id="Home" clip-path="url(#clip0_2122_1285)">
<path id="Vector" d="M27.3 12.124C27.2991 12.1233 27.2985 12.1225 27.2978 12.1219L15.876 0.700472C15.3892 0.21341 14.7419 -0.0546875 14.0534 -0.0546875C13.3649 -0.0546875 12.7176 0.21341 12.2306 0.700472L0.814728 12.1161C0.810882 12.1199 0.806823 12.124 0.803192 12.1278C-0.196566 13.1334 -0.194857 14.7648 0.808105 15.7678C1.26633 16.2262 1.87131 16.4915 2.51837 16.5195C2.54486 16.5221 2.57135 16.5233 2.59806 16.5233H3.05307V24.9286C3.05307 26.5921 4.40659 27.9454 6.07008 27.9454H10.5387C10.9917 27.9454 11.359 27.5779 11.359 27.1251V20.5352C11.359 19.7762 11.9766 19.1588 12.7356 19.1588H15.3712C16.1302 19.1588 16.7476 19.7762 16.7476 20.5352V27.1251C16.7476 27.5779 17.1148 27.9454 17.5679 27.9454H22.0365C23.7002 27.9454 25.0535 26.5921 25.0535 24.9286V16.5233H25.4756C26.1639 16.5233 26.8112 16.2553 27.2985 15.768C28.3025 14.7635 28.3029 13.1291 27.3 12.124ZM26.1383 14.608C25.9612 14.7851 25.7258 14.8827 25.4756 14.8827H24.2332C23.7801 14.8827 23.4129 15.2499 23.4129 15.703V24.9286C23.4129 25.6874 22.7955 26.3047 22.0365 26.3047H18.3882V20.5352C18.3882 18.8717 17.0349 17.5182 15.3712 17.5182H12.7356C11.0719 17.5182 9.71834 18.8717 9.71834 20.5352V26.3047H6.07008C5.31129 26.3047 4.6937 25.6874 4.6937 24.9286V15.703C4.6937 15.2499 4.32648 14.8827 3.87339 14.8827H2.65232C2.6395 14.8819 2.6269 14.8812 2.61386 14.881C2.36948 14.8767 2.14026 14.7798 1.96851 14.6078C1.60321 14.2425 1.60321 13.648 1.96851 13.2825C1.96872 13.2825 1.96872 13.2823 1.96894 13.282L1.96958 13.2814L13.391 1.86045C13.5678 1.68335 13.803 1.58594 14.0534 1.58594C14.3036 1.58594 14.5388 1.68335 14.7158 1.86045L26.1347 13.279C26.1364 13.2808 26.1383 13.2825 26.14 13.2842C26.5034 13.6501 26.5027 14.2433 26.1383 14.608Z" fill="#2267A8"/>
</g>
<defs>
<clipPath id="clip0_2122_1285">
<rect width="28" height="28" fill="white"/>
</clipPath>
</defs>
</svg>
