<svg width="127" height="128" viewBox="0 0 127 128" fill="none" xmlns="http://www.w3.org/2000/svg">
<g id="Laundry" clip-path="url(#clip0_118_7482)">
<g id="Group">
<g id="Group_2">
<path id="Vector" d="M113.876 32.9456V62.2673H123.985C123.2 51.4619 119.584 41.4421 113.876 32.9456Z" fill="#C8EFFE"/>
<path id="Vector_2" d="M56.203 25.1386C56.203 21.1805 59.4233 17.9604 63.3812 17.9604H99.5636C89.4849 10.4946 77.0109 6.07922 63.5049 6.07922C31.5111 6.07922 5.30618 30.8555 3.02499 62.2673H56.203V25.1386Z" fill="#C8EFFE"/>
</g>
<g id="Group_3">
<path id="Vector_3" d="M113.876 100.5C120.363 90.8468 124.149 79.2272 124.149 66.7228C124.149 65.1401 124.087 63.5718 123.968 62.0198H113.876V100.5Z" fill="#B3DAFE"/>
<path id="Vector_4" d="M63.3812 118.455C59.4233 118.455 56.203 115.235 56.203 111.277V62.0198H3.04159C2.92253 63.5718 2.86139 65.1401 2.86139 66.7228C2.86139 100.215 30.0124 127.366 63.505 127.366C75.1067 127.366 85.9463 124.106 95.1611 118.455H63.3812Z" fill="#B3DAFE"/>
</g>
<g id="Group_4">
<path id="Vector_5" d="M23.8188 70.7181H15.7906C13.2495 70.7181 11.0327 69.3364 9.84554 67.2844C8.12475 67.6074 6.82178 69.1159 6.82178 70.9307C6.82178 72.9812 8.48415 74.6436 10.5346 74.6436H21.0671C21.8703 73.2495 22.7955 71.9344 23.8252 70.7104C23.8233 70.7129 23.821 70.7154 23.8188 70.7181Z" fill="#8AC9FE"/>
</g>
<g id="Group_5">
<g id="Group_6">
<path id="Vector_6" d="M60.5866 13.8413H10.0282L8.92575 14.0889V63.853C8.92575 67.6443 11.9993 70.7178 15.7906 70.7178H23.8186C28.7946 64.799 36.2495 61.0297 44.5693 61.0297C48.5005 61.0297 52.2965 61.8564 55.8522 63.4871L56.203 63.6478V25.1386C56.203 21.778 58.525 18.9505 61.6485 18.173V14.0889L60.5866 13.8413Z" fill="#F3F0F3"/>
<path id="Vector_7" d="M24.0206 70.4795C21.1 69.6901 18.9505 67.0233 18.9505 63.853V14.0889H8.92575V63.853C8.92575 67.6443 11.9993 70.7178 15.7906 70.7178H23.8186C23.8859 70.6381 23.9527 70.5584 24.0206 70.4795Z" fill="#E2DEE2"/>
<g id="Group_7">
<path id="Vector_8" d="M54.7837 0.633667H15.7906C11.9993 0.633667 8.92575 3.70718 8.92575 7.49852V14.0889H61.6485V7.49852C61.6485 3.70718 58.575 0.633667 54.7837 0.633667Z" fill="#60B7FF"/>
</g>
<path id="Vector_9" d="M25.8154 0.633667H15.7906C11.9993 0.633667 8.92575 3.70718 8.92575 7.49852V14.0889H18.9505V7.49852C18.9505 3.70718 22.024 0.633667 25.8154 0.633667Z" fill="#26A6FE"/>
<g id="Group_8">
<path id="Vector_10" d="M35.2871 55.7361C43.9315 55.7361 50.9391 48.7285 50.9391 40.0842C50.9391 31.4398 43.9315 24.4322 35.2871 24.4322C26.6428 24.4322 19.6352 31.4398 19.6352 40.0842C19.6352 48.7285 26.6428 55.7361 35.2871 55.7361Z" fill="#01D0FB"/>
</g>
<path id="Vector_11" d="M27.9928 40.0842C27.9928 32.8876 32.8513 26.8297 39.4661 25.0008C38.1354 24.6329 36.7352 24.4322 35.2871 24.4322C26.6428 24.4322 19.6352 31.4399 19.6352 40.0842C19.6352 48.7285 26.6428 55.7361 35.2871 55.7361C36.7349 55.7361 38.1352 55.5354 39.4661 55.1676C32.8515 53.3389 27.9928 47.2807 27.9928 40.0842Z" fill="#01C0FA"/>
<g id="Group_9">
<path id="Vector_12" d="M42.9758 37.6044V42.5641C42.9758 44.3794 44.4473 45.851 46.2626 45.851H49.8376C50.5458 44.0658 50.9391 42.1218 50.9391 40.0844C50.9391 38.047 50.5458 36.103 49.8376 34.3178H46.2626C44.4475 34.3176 42.9758 35.7891 42.9758 37.6044Z" fill="#918291"/>
</g>
<g id="Group_10">
<path id="Vector_13" d="M35.2871 57.5928C25.6329 57.5928 17.7787 49.7386 17.7787 40.0844C17.7787 30.4302 25.6329 22.5757 35.2871 22.5757C44.9413 22.5757 52.7955 30.43 52.7955 40.0842C52.7955 49.7384 44.9413 57.5928 35.2871 57.5928ZM35.2871 26.2886C27.6802 26.2886 21.4916 32.4772 21.4916 40.0842C21.4916 47.6911 27.6802 53.8797 35.2871 53.8797C42.8941 53.8797 49.0827 47.6911 49.0827 40.0842C49.0827 32.4772 42.8941 26.2886 35.2871 26.2886Z" fill="#A79BA7"/>
</g>
<g id="Group_11">
<path id="Vector_14" d="M32.521 53.601C26.2352 52.3166 21.4913 46.7441 21.4913 40.0842C21.4913 33.4243 26.2349 27.8517 32.521 26.5673C34.5144 24.925 36.877 23.7176 39.4621 23.0827C38.1233 22.7537 36.726 22.5757 35.2871 22.5757C25.6329 22.5757 17.7787 30.43 17.7787 40.0842C17.7787 49.7384 25.6329 57.5926 35.2871 57.5926C36.726 57.5926 38.1233 57.4146 39.4621 57.0856C36.877 56.4507 34.5144 55.2433 32.521 53.601Z" fill="#918291"/>
</g>
</g>
<g id="Group_12">
<g id="Group_13">
<path id="Vector_15" d="M26.706 9.97007H15.4475C14.6894 9.97007 14.0745 9.35547 14.0745 8.59705V6.12577C14.0745 5.3676 14.6891 4.75275 15.4475 4.75275H26.706C27.4641 4.75275 28.079 5.36735 28.079 6.12577V8.59705C28.079 9.35522 27.4641 9.97007 26.706 9.97007Z" fill="#0182FC"/>
</g>
<path id="Vector_16" d="M15.4475 4.75275C14.6894 4.75275 14.0745 5.36735 14.0745 6.12577V8.59705C14.0745 9.35522 14.6891 9.97007 15.4475 9.97007H18.9505V7.49879C18.9505 6.52205 19.1557 5.59384 19.5233 4.75275H15.4475Z" fill="#0172FB"/>
<g id="Group_14">
<path id="Vector_17" d="M35.2186 10.9312C37.1901 10.9312 38.7884 9.33294 38.7884 7.3614C38.7884 5.38985 37.1901 3.7916 35.2186 3.7916C33.247 3.7916 31.6488 5.38985 31.6488 7.3614C31.6488 9.33294 33.247 10.9312 35.2186 10.9312Z" fill="#EBEBEB"/>
</g>
<path id="Vector_18" d="M35.0782 7.3614C35.0782 6.0114 35.828 4.83714 36.9332 4.23046C36.4243 3.951 35.8401 3.7916 35.2183 3.7916C33.2468 3.7916 31.6485 5.38986 31.6485 7.3614C31.6485 9.33293 33.2468 10.9312 35.2183 10.9312C35.8399 10.9312 36.424 10.7718 36.9332 10.4923C35.828 9.88541 35.0782 8.71115 35.0782 7.3614Z" fill="#E2DEE2"/>
<g id="Group_15">
<path id="Vector_19" d="M48.2619 9.42081C49.3993 9.42081 50.3213 8.49879 50.3213 7.36141C50.3213 6.22403 49.3993 5.302 48.2619 5.302C47.1245 5.302 46.2025 6.22403 46.2025 7.36141C46.2025 8.49879 47.1245 9.42081 48.2619 9.42081Z" fill="#0182FC"/>
</g>
<path id="Vector_20" d="M47.9109 7.36141C47.9109 6.52923 48.4057 5.81388 49.1161 5.48913C48.8557 5.37007 48.5669 5.302 48.2619 5.302C47.1245 5.302 46.2025 6.22403 46.2025 7.36141C46.2025 8.49878 47.1245 9.42081 48.2619 9.42081C48.5671 9.42081 48.8557 9.35274 49.1161 9.23368C48.4057 8.90893 47.9109 8.19359 47.9109 7.36141Z" fill="#0172FB"/>
<g id="Group_16">
<path id="Vector_21" d="M54.4404 9.42081C55.5777 9.42081 56.4998 8.49879 56.4998 7.36141C56.4998 6.22403 55.5777 5.302 54.4404 5.302C53.303 5.302 52.381 6.22403 52.381 7.36141C52.381 8.49879 53.303 9.42081 54.4404 9.42081Z" fill="#0182FC"/>
</g>
<path id="Vector_22" d="M54.0894 7.36141C54.0894 6.52923 54.5842 5.81388 55.2946 5.48913C55.0342 5.37007 54.7453 5.302 54.4404 5.302C53.303 5.302 52.381 6.22403 52.381 7.36141C52.381 8.49878 53.303 9.42081 54.4404 9.42081C54.7456 9.42081 55.0342 9.35274 55.2946 9.23368C54.5839 8.90893 54.0894 8.19359 54.0894 7.36141Z" fill="#0172FB"/>
</g>
</g>
<g id="Group_17">
<path id="Vector_23" d="M56.203 111.277V63.3745C52.6725 61.7129 48.73 60.7822 44.5693 60.7822C29.4636 60.7822 17.2178 73.028 17.2178 88.1336C17.2178 103.239 29.4636 115.485 44.5693 115.485C48.7956 115.485 52.7975 114.526 56.3706 112.815C56.2619 112.319 56.203 111.805 56.203 111.277Z" fill="#FE9738"/>
<path id="Vector_24" d="M29.099 88.1336C29.099 75.0681 38.2609 64.1443 50.5099 61.4312C48.597 61.0074 46.6097 60.7822 44.5693 60.7822C29.4636 60.7822 17.2178 73.028 17.2178 88.1336C17.2178 103.239 29.4636 115.485 44.5693 115.485C46.6097 115.485 48.597 115.26 50.5099 114.836C38.2609 112.123 29.099 101.199 29.099 88.1336Z" fill="#FE860A"/>
<g id="Group_18">
<g id="Group_19">
<g id="Group_20">
<g id="Group_21">
<g id="Group_22">
<g id="Group_23">
<path id="Vector_25" d="M45.6832 68.202H43.4554C43.0453 68.202 42.7129 67.8695 42.7129 67.4594V65.4851C42.7129 65.075 43.0453 64.7426 43.4554 64.7426H45.6832C46.0933 64.7426 46.4257 65.075 46.4257 65.4851V67.4594C46.4257 67.8693 46.0933 68.202 45.6832 68.202Z" fill="white"/>
</g>
</g>
<g id="Group_24">
<g id="Group_25">
<path id="Vector_26" d="M45.6832 111.525H43.4554C43.0453 111.525 42.7129 111.192 42.7129 110.782V108.808C42.7129 108.398 43.0453 108.065 43.4554 108.065H45.6832C46.0933 108.065 46.4257 108.398 46.4257 108.808V110.782C46.4257 111.192 46.0933 111.525 45.6832 111.525Z" fill="white"/>
</g>
</g>
</g>
<g id="Group_26">
<g id="Group_27">
<g id="Group_28">
<path id="Vector_27" d="M23.8951 89.9901H21.9208C21.5106 89.9901 21.1782 89.6577 21.1782 89.2475V87.0198C21.1782 86.6096 21.5106 86.2772 21.9208 86.2772H23.8951C24.3052 86.2772 24.6376 86.6096 24.6376 87.0198V89.2475C24.6376 89.6577 24.305 89.9901 23.8951 89.9901Z" fill="white"/>
</g>
</g>
</g>
</g>
<g id="Group_29">
<g id="Group_30">
<g id="Group_31">
<g id="Group_32">
<path id="Vector_28" d="M24.8688 100.794L23.755 98.8646C23.55 98.5094 23.6716 98.0552 24.0268 97.8502L25.7364 96.8631C26.0916 96.6582 26.5458 96.7797 26.7508 97.1349L27.8646 99.0641C28.0696 99.4193 27.948 99.8735 27.5928 100.078L25.8832 101.066C25.528 101.271 25.074 101.149 24.8688 100.794Z" fill="white"/>
</g>
</g>
</g>
<g id="Group_33">
<g id="Group_34">
<g id="Group_35">
<path id="Vector_29" d="M32.6243 71.1572L31.6374 69.4475C31.4324 69.0923 31.554 68.6381 31.9092 68.4332L33.8384 67.3193C34.1936 67.1144 34.6478 67.2359 34.8527 67.5911L35.8396 69.3007C36.0446 69.6559 35.923 70.1101 35.5678 70.3151L33.6386 71.429C33.2834 71.6342 32.8295 71.5124 32.6243 71.1572Z" fill="white"/>
</g>
</g>
<path id="Vector_30" d="M56.203 104.818C55.9874 104.71 55.724 104.709 55.5 104.838L53.5708 105.952C53.2156 106.157 53.0938 106.611 53.299 106.966L54.2859 108.676C54.4909 109.031 54.9451 109.153 55.3003 108.948L56.203 108.426V104.818Z" fill="white"/>
</g>
</g>
<g id="Group_36">
<g id="Group_37">
<g id="Group_38">
<g id="Group_39">
<path id="Vector_31" d="M25.7366 79.4042L24.027 78.4171C23.6718 78.2121 23.55 77.7579 23.7552 77.4027L24.8691 75.4735C25.074 75.1183 25.5282 74.9968 25.8834 75.2017L27.5931 76.1888C27.9483 76.3938 28.0701 76.848 27.8649 77.2032L26.751 79.1324C26.5458 79.4876 26.0916 79.6091 25.7366 79.4042Z" fill="white"/>
</g>
</g>
</g>
<g id="Group_40">
<g id="Group_41">
<g id="Group_42">
<path id="Vector_32" d="M33.8384 108.948L31.9092 107.834C31.554 107.629 31.4324 107.175 31.6374 106.82L32.6243 105.11C32.8292 104.755 33.2834 104.633 33.6386 104.838L35.5678 105.952C35.923 106.157 36.0446 106.611 35.8396 106.966L34.8527 108.676C34.6478 109.031 34.1936 109.153 33.8384 108.948Z" fill="white"/>
</g>
</g>
<path id="Vector_33" d="M56.203 67.8406L55.3003 67.3193C54.9451 67.1144 54.4909 67.2359 54.2859 67.5911L53.299 69.3007C53.0941 69.6559 53.2156 70.1101 53.5708 70.3151L55.5 71.429C55.7243 71.5584 55.9876 71.5569 56.203 71.4495V67.8406Z" fill="white"/>
</g>
</g>
</g>
<g id="Group_43">
<path id="Vector_34" d="M53.8515 89.9901H44.5693C43.5441 89.9901 42.7129 89.1589 42.7129 88.1336V74.8911C42.7129 74.2077 43.2671 73.6534 43.9505 73.6534H45.1881C45.8715 73.6534 46.4257 74.2077 46.4257 74.8911V86.2772H53.8515C54.5349 86.2772 55.0891 86.8314 55.0891 87.5148V88.7525C55.0891 89.4359 54.5349 89.9901 53.8515 89.9901Z" fill="white"/>
</g>
</g>
</g>
<g id="Group_44">
<g id="Group_45">
<path id="Vector_35" d="M106.698 17.7129H63.3812C59.2799 17.7129 55.9554 21.0374 55.9554 25.1386V111.277C55.9554 115.378 59.2799 118.703 63.3812 118.703H94.7542C102.513 114.029 109.137 107.666 114.124 100.125V25.1386C114.124 21.0374 110.799 17.7129 106.698 17.7129Z" fill="#B5ADB6"/>
</g>
<path id="Vector_36" d="M68.703 111.277V25.1386C68.703 21.0374 72.0275 17.7129 76.1287 17.7129H63.3812C59.2799 17.7129 55.9554 21.0374 55.9554 25.1386V111.277C55.9554 115.378 59.2799 118.703 63.3812 118.703H76.1287C72.0275 118.703 68.703 115.378 68.703 111.277Z" fill="#A79BA7"/>
<g id="Group_46">
<path id="Vector_37" d="M110.411 25.1386C110.411 23.0881 108.749 21.4258 106.698 21.4258H101.907C100.895 21.4258 99.9844 22.0421 99.6084 22.9817L99.2832 23.7948C98.7193 25.2045 97.354 26.1287 95.8359 26.1287H74.2171C72.7121 26.1287 71.3559 25.2203 70.7834 23.8285L70.4257 22.9594C70.0441 22.0314 69.1401 21.4258 68.1366 21.4258H63.3812C61.3307 21.4258 59.6683 23.0881 59.6683 25.1386V111.277C59.6683 113.328 61.3307 114.99 63.3812 114.99H100.217C103.986 112.12 107.409 108.82 110.411 105.161V25.1386Z" fill="#0593FC"/>
</g>
<path id="Vector_38" d="M68.703 25.1386C68.703 23.9475 68.9849 22.823 69.4834 21.8255C69.0906 21.5706 68.6257 21.4258 68.1369 21.4258H63.3812C61.3307 21.4258 59.6683 23.0881 59.6683 25.1386V111.277C59.6683 113.328 61.3307 114.99 63.3812 114.99H69.6988C69.0666 113.898 68.703 112.63 68.703 111.277V25.1386Z" fill="#0182FC"/>
<g id="Group_47">
<g id="Group_48">
<path id="Vector_39" d="M98.7911 95.4357H71.2881C69.9881 95.4357 68.9307 96.4931 68.9307 97.7931V102.979C68.9307 104.279 69.9881 105.337 71.2881 105.337H98.7908C100.091 105.337 101.148 104.279 101.148 102.979V97.7931C101.148 96.4931 100.091 95.4357 98.7911 95.4357Z" fill="#A2E62E"/>
</g>
<path id="Vector_40" d="M77.327 102.979V97.7931C77.327 96.4933 78.3844 95.4357 79.6844 95.4357H71.2881C69.9881 95.4357 68.9307 96.4931 68.9307 97.7931V102.979C68.9307 104.279 69.9881 105.337 71.2881 105.337H79.6844C78.3844 105.337 77.327 104.279 77.327 102.979Z" fill="#97D729"/>
<g id="Group_49">
<path id="Vector_41" d="M95.4193 99.1485H74.6601C74.25 99.1485 73.9176 99.481 73.9176 99.8911V100.881C73.9176 101.291 74.25 101.624 74.6601 101.624H95.4193C95.8295 101.624 96.1619 101.291 96.1619 100.881V99.8911C96.1619 99.481 95.8292 99.1485 95.4193 99.1485Z" fill="white"/>
</g>
</g>
<g id="Group_50">
<path id="Vector_42" d="M94.9243 21.4258H75.1552C74.4718 21.4258 73.9176 21.98 73.9176 22.6634C73.9176 23.3468 74.4718 23.901 75.1552 23.901H94.9243C95.6077 23.901 96.1619 23.3468 96.1619 22.6634C96.1619 21.98 95.6077 21.4258 94.9243 21.4258Z" fill="#918291"/>
</g>
<g id="Group_51">
<path id="Vector_43" d="M102.226 73.6535H89.5775V80.5842H102.226C104.14 80.5842 105.692 79.0327 105.692 77.1188C105.692 75.205 104.14 73.6535 102.226 73.6535Z" fill="white"/>
<g id="Group_52">
<path id="Vector_44" d="M67.853 73.6535C65.9391 73.6535 64.3876 75.205 64.3876 77.1188C64.3876 79.0327 65.9391 80.5842 67.853 80.5842H89.825V73.6535H67.853Z" fill="#A2E62E"/>
</g>
<path id="Vector_45" d="M70.6832 77.1188C70.6832 75.205 72.2346 73.6535 74.1485 73.6535H67.853C65.9391 73.6535 64.3876 75.205 64.3876 77.1188C64.3876 79.0327 65.9391 80.5842 67.853 80.5842H74.1485C72.2346 80.5842 70.6832 79.0327 70.6832 77.1188Z" fill="#97D729"/>
</g>
<g id="Group_53">
<g id="Group_54">
<g id="Group_55">
<path id="Vector_46" d="M103.191 37.7624H66.8879C66.2044 37.7624 65.6502 38.3166 65.6502 39V44.9406C65.6502 45.624 66.2044 46.1782 66.8879 46.1782H71.9208C72.6042 46.1782 73.1584 46.7324 73.1584 47.4159V67.7129C73.1584 68.3963 73.7126 68.9505 74.396 68.9505H95.6832C96.3666 68.9505 96.9208 68.3963 96.9208 67.7129V47.4159C96.9208 46.7324 97.475 46.1782 98.1584 46.1782H103.191C103.875 46.1782 104.429 45.624 104.429 44.9406V39C104.429 38.3166 103.875 37.7624 103.191 37.7624Z" fill="white"/>
</g>
<g id="Group_56">
<g id="Group_57">
<path id="Vector_47" d="M69.7755 44.9406V39C69.7755 38.3166 70.3297 37.7624 71.0131 37.7624H66.8876C66.2042 37.7624 65.65 38.3166 65.65 39V44.9406C65.65 45.624 66.2042 46.1782 66.8876 46.1782H71.0131C70.3297 46.1782 69.7755 45.624 69.7755 44.9406Z" fill="#F3F0F3"/>
<path id="Vector_48" d="M77.2839 67.7129V47.4158C77.2839 46.7324 76.7297 46.1782 76.0463 46.1782H71.9208C72.6042 46.1782 73.1584 46.7324 73.1584 47.4158V67.7129C73.1584 68.3963 73.7126 68.9505 74.396 68.9505H78.5215C77.8379 68.9505 77.2839 68.3963 77.2839 67.7129Z" fill="#F3F0F3"/>
</g>
</g>
<g id="Group_58">
<g id="Group_59">
<path id="Vector_49" d="M80.2542 37.7624C80.2542 40.4052 82.3968 42.5478 85.0396 42.5478C87.6824 42.5478 89.825 40.4052 89.825 37.7624H80.2542Z" fill="#E2DEE2"/>
</g>
</g>
<path id="Vector_50" d="M83.802 37.7624H80.2542C80.2542 40.4052 82.3968 42.5478 85.0396 42.5478C85.6671 42.5478 86.2646 42.4238 86.8136 42.2042C85.0498 41.499 83.802 39.778 83.802 37.7624Z" fill="#CBC4CC"/>
</g>
<g id="Group_60">
<path id="Vector_51" d="M99.5344 49.7225L100.886 52.1943C100.944 52.2998 101.03 52.3864 101.136 52.4438L103.607 53.7956C104.043 54.0337 104.043 54.6592 103.607 54.8973L101.136 56.249C101.03 56.3067 100.944 56.3933 100.886 56.4985L99.5344 58.9703C99.2963 59.4057 98.6708 59.4057 98.4327 58.9703L97.0809 56.4985C97.0233 56.3931 96.9366 56.3065 96.8314 56.249L94.3597 54.8973C93.9243 54.6592 93.9243 54.0337 94.3597 53.7956L96.8314 52.4438C96.9369 52.3862 97.0235 52.2995 97.0809 52.1943L98.4327 49.7225C98.6708 49.2871 99.2963 49.2871 99.5344 49.7225Z" fill="#FFE177"/>
</g>
<g id="Group_61">
<path id="Vector_52" d="M91.4535 58.8493L92.3554 60.4985C92.3938 60.5688 92.4517 60.6265 92.522 60.6651L94.1713 61.5671C94.4619 61.726 94.4619 62.1433 94.1713 62.3022L92.522 63.2042C92.4517 63.2426 92.3941 63.3005 92.3554 63.3708L91.4535 65.0201C91.2945 65.3107 90.8772 65.3107 90.7183 65.0201L89.8163 63.3708C89.778 63.3005 89.72 63.2428 89.6497 63.2042L88.0005 62.3022C87.7099 62.1433 87.7099 61.726 88.0005 61.5671L89.6497 60.6651C89.72 60.6267 89.7777 60.5688 89.8163 60.4985L90.7183 58.8493C90.8775 58.5587 91.2945 58.5587 91.4535 58.8493Z" fill="#FFE177"/>
</g>
<g id="Group_62">
<path id="Vector_53" d="M92.3668 42.6832L93.2688 44.3324C93.3072 44.4027 93.3651 44.4604 93.4354 44.499L95.0847 45.401C95.3753 45.5599 95.3753 45.9772 95.0847 46.1362L93.4354 47.0381C93.3651 47.0765 93.3074 47.1344 93.2688 47.2047L92.3668 48.854C92.2079 49.1446 91.7906 49.1446 91.6317 48.854L90.7297 47.2047C90.6913 47.1344 90.6334 47.0767 90.5631 47.0381L88.9139 46.1362C88.6233 45.9772 88.6233 45.5599 88.9139 45.401L90.5631 44.499C90.6334 44.4607 90.6911 44.4027 90.7297 44.3324L91.6317 42.6832C91.7906 42.3928 92.2079 42.3928 92.3668 42.6832Z" fill="#FFE177"/>
</g>
</g>
<g id="Group_63">
<g id="Group_64">
<g id="Group_65">
<path id="Vector_54" d="M104.454 89.2475C105.137 89.2475 105.692 88.6934 105.692 88.0099C105.692 87.3264 105.137 86.7723 104.454 86.7723C103.77 86.7723 103.216 87.3264 103.216 88.0099C103.216 88.6934 103.77 89.2475 104.454 89.2475Z" fill="#A2E62E"/>
</g>
</g>
<g id="Group_66">
<g id="Group_67">
<path id="Vector_55" d="M100.386 89.2475C101.07 89.2475 101.624 88.6934 101.624 88.0099C101.624 87.3264 101.07 86.7723 100.386 86.7723C99.7026 86.7723 99.1485 87.3264 99.1485 88.0099C99.1485 88.6934 99.7026 89.2475 100.386 89.2475Z" fill="white"/>
</g>
</g>
<g id="Group_68">
<g id="Group_69">
<path id="Vector_56" d="M96.3183 89.2475C97.0018 89.2475 97.5559 88.6934 97.5559 88.0099C97.5559 87.3264 97.0018 86.7723 96.3183 86.7723C95.6348 86.7723 95.0807 87.3264 95.0807 88.0099C95.0807 88.6934 95.6348 89.2475 96.3183 89.2475Z" fill="white"/>
</g>
</g>
<g id="Group_70">
<path id="Vector_57" d="M65.6253 89.2475C66.3088 89.2475 66.8629 88.6934 66.8629 88.0099C66.8629 87.3264 66.3088 86.7723 65.6253 86.7723C64.9417 86.7723 64.3876 87.3264 64.3876 88.0099C64.3876 88.6934 64.9417 89.2475 65.6253 89.2475Z" fill="white"/>
</g>
<g id="Group_71">
<path id="Vector_58" d="M67.2178 25.8812C67.9013 25.8812 68.4554 25.3271 68.4554 24.6436C68.4554 23.96 67.9013 23.4059 67.2178 23.4059C66.5343 23.4059 65.9802 23.96 65.9802 24.6436C65.9802 25.3271 66.5343 25.8812 67.2178 25.8812Z" fill="#0172FB"/>
</g>
<g id="Group_72">
<path id="Vector_59" d="M63.6451 25.8812C64.3286 25.8812 64.8827 25.3271 64.8827 24.6436C64.8827 23.96 64.3286 23.4059 63.6451 23.4059C62.9615 23.4059 62.4074 23.96 62.4074 24.6436C62.4074 25.3271 62.9615 25.8812 63.6451 25.8812Z" fill="#0172FB"/>
</g>
</g>
</g>
<g id="Group_73">
<path id="Vector_60" d="M40.7327 35.7822C41.8263 35.7822 42.7129 34.8956 42.7129 33.802C42.7129 32.7083 41.8263 31.8218 40.7327 31.8218C39.639 31.8218 38.7525 32.7083 38.7525 33.802C38.7525 34.8956 39.639 35.7822 40.7327 35.7822Z" fill="#99E6FC"/>
</g>
<g id="Group_74">
<path id="Vector_61" d="M34.297 42.7129C35.3907 42.7129 36.2772 41.8263 36.2772 40.7327C36.2772 39.639 35.3907 38.7525 34.297 38.7525C33.2034 38.7525 32.3168 39.639 32.3168 40.7327C32.3168 41.8263 33.2034 42.7129 34.297 42.7129Z" fill="white"/>
</g>
<g id="Group_75">
<path id="Vector_62" d="M42.2178 48.6535C43.3114 48.6535 44.198 47.7669 44.198 46.6733C44.198 45.5796 43.3114 44.6931 42.2178 44.6931C41.1242 44.6931 40.2376 45.5796 40.2376 46.6733C40.2376 47.7669 41.1242 48.6535 42.2178 48.6535Z" fill="#99E6FC"/>
</g>
</g>
</g>
<defs>
<clipPath id="clip0_118_7482">
<rect width="126.733" height="126.733" fill="white" transform="translate(0.138611 0.633667)"/>
</clipPath>
</defs>
</svg>
