<svg width="29" height="28" viewBox="0 0 29 28" fill="none" xmlns="http://www.w3.org/2000/svg">
<g id="Laundry">
<path id="Vector" d="M24.9385 0H4.43702C3.0982 0 2.00916 1.08691 2.00916 2.42313V25.5769C2.00916 26.9131 3.0982 28 4.43702 28H24.9385C26.2773 28 27.3664 26.9131 27.3664 25.5769V2.42313C27.3664 1.08691 26.2773 0 24.9385 0ZM3.62773 2.42313C3.62773 1.97772 3.99075 1.61542 4.43702 1.61542H24.9385C25.3848 1.61542 25.7478 1.97772 25.7478 2.42313V5.65375H3.62773V2.42313ZM25.7478 25.5769C25.7478 26.0223 25.3848 26.3846 24.9385 26.3846H4.43702C3.99075 26.3846 3.62773 26.0223 3.62773 25.5769V7.26917H25.7478V25.5769Z" fill="black" fill-opacity="0.3"/>
<path id="Vector_2" d="M20.0822 2.82687H18.464C18.0171 2.82687 17.6547 3.18854 17.6547 3.63458C17.6547 4.08063 18.0171 4.44229 18.464 4.44229H20.0822C20.5291 4.44229 20.8915 4.08063 20.8915 3.63458C20.8915 3.18854 20.5291 2.82687 20.0822 2.82687Z" fill="black" fill-opacity="0.3"/>
<path id="Vector_3" d="M24.3991 2.82687H22.781C22.3341 2.82687 21.9717 3.18854 21.9717 3.63458C21.9717 4.08063 22.3341 4.44229 22.781 4.44229H24.3991C24.846 4.44229 25.2082 4.08063 25.2082 3.63458C25.2082 3.18854 24.846 2.82687 24.3991 2.82687Z" fill="black" fill-opacity="0.3"/>
<path id="Vector_4" d="M6.86487 16.8269C6.86487 21.132 10.3741 24.6346 14.6876 24.6346C19.0014 24.6346 22.5106 21.132 22.5106 16.8269C22.5106 16.6173 22.5021 16.4097 22.4858 16.2044C22.4858 16.2033 22.4856 16.2022 22.4856 16.2014C22.1652 12.1876 18.7904 9.01917 14.6876 9.01917C10.5851 9.01917 7.21033 12.1876 6.88991 16.2014C6.8897 16.2022 6.8897 16.2033 6.8897 16.2044C6.87343 16.4097 6.86487 16.6173 6.86487 16.8269ZM14.6876 23.0192C11.4055 23.0192 8.71097 20.4623 8.49736 17.2398C8.67202 17.3116 8.82677 17.4064 9.00335 17.5147C9.48066 17.808 10.0751 18.1731 11.1808 18.1731C12.2865 18.1731 12.8807 17.8083 13.3582 17.515C13.754 17.2719 14.0397 17.0963 14.6874 17.0963C15.3351 17.0963 15.6211 17.2719 16.0168 17.515C16.4944 17.808 17.0888 18.1731 18.1945 18.1731C19.3002 18.1731 19.8946 17.8083 20.3721 17.515C20.5487 17.4064 20.7035 17.3116 20.8779 17.2398C20.6645 20.4623 17.97 23.0192 14.6876 23.0192ZM14.6876 10.6346C17.6821 10.6346 20.1879 12.7627 20.7664 15.5832C20.2195 15.7126 19.8447 15.942 19.5239 16.139C19.1281 16.3821 18.8422 16.5577 18.1945 16.5577C17.5468 16.5577 17.2608 16.3821 16.8651 16.139C16.3876 15.8457 15.7934 15.4806 14.6874 15.4806C13.5817 15.4806 12.9875 15.8457 12.51 16.139C12.1142 16.3821 11.8283 16.5577 11.1808 16.5577C10.5331 16.5577 10.2471 16.3821 9.85138 16.139C9.53054 15.9418 9.15596 15.7124 8.60909 15.5832C9.18764 12.7627 11.6934 10.6346 14.6876 10.6346Z" fill="black" fill-opacity="0.3"/>
</g>
</svg>
