<svg width="82" height="82" viewBox="0 0 82 82" fill="none" xmlns="http://www.w3.org/2000/svg">
<g id="Laundry">
<g id="Group">
<g id="Group_2">
<path id="Vector" d="M79.012 52.5312C79.8123 49.4079 80.2383 46.1346 80.2383 42.7617C80.2383 21.091 62.6707 3.52344 41 3.52344C19.3293 3.52344 1.76172 21.091 1.76172 42.7617C1.76172 46.1346 2.18773 49.4079 2.98804 52.5312H79.012Z" fill="#C8EFFE"/>
</g>
<path id="Vector_2" d="M2.94897 52.3711C7.23508 69.396 22.6448 82 41 82C59.3552 82 74.765 69.396 79.0511 52.3711H2.94897Z" fill="#B3DAFE"/>
<path id="Vector_3" d="M31.4494 61.9062H13.431C11.8027 61.9062 10.3256 61.2631 9.23621 60.2188H5.85339C6.57025 61.6594 7.37296 63.0495 8.25494 64.3828H31.9973L31.4494 61.9062Z" fill="#8AC9FE"/>
<path id="Vector_4" d="M32.0312 69.0273C30.8861 69.0273 29.9492 69.9643 29.9492 71.1094C29.9492 72.2545 30.8861 73.1914 32.0312 73.1914H65.7706C67.334 71.9169 68.797 70.5243 70.1468 69.0273H32.0312Z" fill="#8AC9FE"/>
<g id="Group_3">
<g id="Group_4">
<path id="Vector_5" d="M29.2588 52.0026H28.7444C28.1723 52.0026 27.7069 51.5372 27.7069 50.9649V47.6117C27.7069 47.0398 28.1723 46.5742 28.7444 46.5742H47.9143L47.6029 46.2949C47.1724 45.9088 46.9256 45.3579 46.9256 44.7837V43.0298C46.9256 41.9092 47.8372 40.9976 48.9578 40.9976V40.6773C47.8372 40.6773 46.9256 39.7657 46.9256 38.6452V36.8914C46.9256 35.7709 47.8372 34.8593 48.9578 34.8593V34.539C47.8372 34.539 46.9256 33.6274 46.9256 32.5068V30.7529C46.9256 29.6324 47.8372 28.7208 48.9578 28.7208V28.4005C47.8372 28.4005 46.9256 27.4889 46.9256 26.3685V24.6146C46.9256 23.494 47.8372 22.5824 48.9578 22.5824H53.9376V11.8852L52.57 11.6836H8.74741L7.36719 11.8852V55.8423C7.36719 59.1914 10.082 61.9062 13.431 61.9062H31.4494L29.2588 52.0026Z" fill="white"/>
</g>
<path id="Vector_6" d="M15.5352 55.8422V11.8852L16.9154 11.6836H8.74741L7.36719 11.8852V55.8423C7.36719 59.1914 10.082 61.9062 13.431 61.9062H21.599C18.25 61.9062 15.5352 59.1912 15.5352 55.8422Z" fill="#F3F0F3"/>
<g id="Group_5">
<g id="Group_6">
<g id="Group_7">
<path id="Vector_7" d="M49.1331 0H12.1719C9.51825 0 7.36719 2.15106 7.36719 4.80469V11.8852H53.9377V4.80469C53.9377 2.15106 51.7865 0 49.1331 0Z" fill="#26A6FE"/>
<path id="Vector_8" d="M20.3398 0H12.1719C9.51825 0 7.36719 2.15106 7.36719 4.80469V11.8852H15.5352V4.80469C15.5352 2.15106 17.6862 0 20.3398 0Z" fill="#26A6FE"/>
<path id="Vector_9" d="M27.7071 47.6119C27.7071 47.04 28.1725 46.5744 28.7445 46.5744H37.9723C41.8783 44.1312 44.4781 39.7937 44.4781 34.8469C44.4781 27.2112 38.2883 21.0213 30.6525 21.0213C23.0169 21.0213 16.8268 27.2112 16.8268 34.8469C16.8268 41.4715 21.4869 47.0047 27.7071 48.355V47.6119Z" fill="#01D0FB"/>
<path id="Vector_10" d="M27.7071 47.6119C27.7071 47.04 28.1725 46.5744 28.7445 46.5744H30.1068C26.1997 44.1318 23.5989 39.7945 23.5989 34.8469C23.5989 28.3797 28.04 22.951 34.0385 21.4406C32.9549 21.1677 31.8208 21.0213 30.6525 21.0213C23.0169 21.0213 16.8268 27.2112 16.8268 34.8469C16.8268 41.4715 21.4869 47.0047 27.7071 48.355V47.6119Z" fill="#01C0FA"/>
<path id="Vector_11" d="M37.4439 32.6565V37.0374C37.4439 38.6409 38.7437 39.9407 40.3471 39.9407H43.505C44.1304 38.3638 44.478 36.6466 44.478 34.8471C44.478 33.0476 44.1304 31.3302 43.505 29.7535H40.3471C38.7437 29.7533 37.4439 31.0532 37.4439 32.6565Z" fill="#918291"/>
<path id="Vector_12" d="M27.7071 47.6119C27.7071 47.4445 27.7477 47.2868 27.8185 47.1468C22.218 45.8567 18.028 40.8336 18.028 34.847C18.028 27.8858 23.6913 22.2226 30.6525 22.2226C37.6137 22.2226 43.277 27.8858 43.277 34.847C43.277 40.1608 39.9753 44.715 35.317 46.5746H40.0362C43.4738 43.8184 45.6793 39.5858 45.6793 34.847C45.6793 26.5613 38.9383 19.8203 30.6525 19.8203C22.3666 19.8203 15.6257 26.5613 15.6257 34.847C15.6257 42.1249 20.8267 48.2102 27.7071 49.5833V47.6119Z" fill="#A79BA7"/>
<path id="Vector_13" d="M27.707 47.6119C27.707 47.4445 27.7479 47.2868 27.8185 47.1465C22.218 45.8564 18.0278 40.8336 18.0278 34.8468C18.0278 27.8885 23.6865 22.2274 30.6437 22.2226C31.8882 21.417 33.2589 20.7905 34.719 20.3796C33.4251 20.0154 32.0612 19.8201 30.6523 19.8201C22.3665 19.8201 15.6255 26.5611 15.6255 34.8468C15.6255 42.1248 20.8266 48.2101 27.7069 49.5831V47.6119H27.707Z" fill="#918291"/>
</g>
<g id="Group_8">
<path id="Vector_14" d="M23.0726 8.24692H13.1279C12.4581 8.24692 11.9152 7.70399 11.9152 7.03422V4.85113C11.9152 4.18136 12.4581 3.63843 13.1279 3.63843H23.0726C23.7424 3.63843 24.2853 4.18136 24.2853 4.85113V7.03406C24.2853 7.70383 23.7424 8.24692 23.0726 8.24692Z" fill="#0182FC"/>
<path id="Vector_15" d="M15.9774 7.03404V4.85111C15.9774 4.18133 16.5203 3.63824 17.1901 3.63824H13.1279C12.4581 3.63824 11.9152 4.18117 11.9152 4.85111V7.03404C11.9152 7.70381 12.4581 8.2469 13.1279 8.2469H17.1902C16.5203 8.2469 15.9774 7.70381 15.9774 7.03404Z" fill="#0172FB"/>
<path id="Vector_16" d="M30.5918 9.09574C32.3332 9.09574 33.7449 7.68403 33.7449 5.94258C33.7449 4.20114 32.3332 2.78943 30.5918 2.78943C28.8503 2.78943 27.4386 4.20114 27.4386 5.94258C27.4386 7.68403 28.8503 9.09574 30.5918 9.09574Z" fill="#01D0FB"/>
<path id="Vector_17" d="M30.1094 5.94258C30.1094 4.67911 30.8543 3.59229 31.9271 3.08924C31.5211 2.89882 31.0698 2.78943 30.5918 2.78943C28.8502 2.78943 27.4386 4.20121 27.4386 5.94258C27.4386 7.68396 28.8504 9.09574 30.5918 9.09574C31.0698 9.09574 31.5211 8.98635 31.9271 8.79593C30.8543 8.29288 30.1094 7.20606 30.1094 5.94258Z" fill="#01C0FA"/>
<path id="Vector_18" d="M42.1131 7.76181C43.1178 7.76181 43.9323 6.94732 43.9323 5.9426C43.9323 4.93787 43.1178 4.12338 42.1131 4.12338C41.1084 4.12338 40.2939 4.93787 40.2939 5.9426C40.2939 6.94732 41.1084 7.76181 42.1131 7.76181Z" fill="#01D0FB"/>
<path id="Vector_19" d="M41.8461 5.9426C41.8461 5.21597 42.2733 4.59056 42.8892 4.29907C42.6536 4.18761 42.3911 4.12338 42.1131 4.12338C41.1084 4.12338 40.2939 4.93778 40.2939 5.9426C40.2939 6.94742 41.1083 7.76181 42.1131 7.76181C42.3911 7.76181 42.6535 7.69759 42.8892 7.58612C42.2733 7.29464 41.8461 6.66923 41.8461 5.9426Z" fill="#01C0FA"/>
<path id="Vector_20" d="M47.5706 7.76181C48.5753 7.76181 49.3898 6.94732 49.3898 5.9426C49.3898 4.93787 48.5753 4.12338 47.5706 4.12338C46.5658 4.12338 45.7513 4.93787 45.7513 5.9426C45.7513 6.94732 46.5658 7.76181 47.5706 7.76181Z" fill="#01D0FB"/>
<path id="Vector_21" d="M47.3036 5.9426C47.3036 5.21597 47.7307 4.59056 48.3467 4.29907C48.1111 4.18761 47.8486 4.12338 47.5706 4.12338C46.5659 4.12338 45.7513 4.93778 45.7513 5.9426C45.7513 6.94742 46.5657 7.76181 47.5706 7.76181C47.8486 7.76181 48.1109 7.69759 48.3467 7.58612C47.7307 7.29464 47.3036 6.66923 47.3036 5.9426Z" fill="#01C0FA"/>
</g>
</g>
<path id="Vector_22" d="M31.9643 31.0469C32.9303 31.0469 33.7133 30.2638 33.7133 29.2979C33.7133 28.3319 32.9303 27.5488 31.9643 27.5488C30.9983 27.5488 30.2152 28.3319 30.2152 29.2979C30.2152 30.2638 30.9983 31.0469 31.9643 31.0469Z" fill="#C8EFFE"/>
<path id="Vector_23" d="M26.2796 37.1689C27.2456 37.1689 28.0286 36.3858 28.0286 35.4198C28.0286 34.4539 27.2456 33.6708 26.2796 33.6708C25.3136 33.6708 24.5305 34.4539 24.5305 35.4198C24.5305 36.3858 25.3136 37.1689 26.2796 37.1689Z" fill="#C8EFFE"/>
<path id="Vector_24" d="M33.2762 42.4163C34.2421 42.4163 35.0252 41.6332 35.0252 40.6672C35.0252 39.7012 34.2421 38.9181 33.2762 38.9181C32.3102 38.9181 31.5271 39.7012 31.5271 40.6672C31.5271 41.6332 32.3102 42.4163 33.2762 42.4163Z" fill="white"/>
</g>
</g>
<g id="Group_9">
<path id="Vector_25" d="M47.6957 46.5746H76.748C77.31 46.1775 77.678 45.5244 77.678 44.784V43.0301C77.678 41.8194 76.6964 40.8378 75.4856 40.8378L73.8208 40.7282H50.6091L48.958 40.8378C47.7472 40.8378 46.7656 41.8194 46.7656 43.0301V44.784C46.7656 45.5243 47.1337 46.1775 47.6957 46.5746Z" fill="#FE9738"/>
<path id="Vector_26" d="M47.6957 46.5746H53.8891C53.3271 46.1775 52.959 45.5244 52.959 44.784V43.0301C52.959 41.8194 53.9406 40.8378 55.1514 40.8378H48.958C47.7472 40.8378 46.7656 41.8194 46.7656 43.0301V44.784C46.7656 45.5243 47.1337 46.1775 47.6957 46.5746Z" fill="#FE860A"/>
<path id="Vector_27" d="M75.4855 28.5605L73.8618 28.451H50.6502L48.958 28.5605C47.7472 28.5605 46.7656 29.5421 46.7656 30.7529V32.5068C46.7656 33.7175 47.7472 34.6991 48.958 34.6991L50.6366 34.8087H73.8482L75.4856 34.6991C76.6964 34.6991 77.678 33.7175 77.678 32.5068V30.7529C77.6779 29.5421 76.6964 28.5605 75.4855 28.5605Z" fill="#60B7FF"/>
<g id="Group_10">
<g id="Group_11">
<path id="Vector_28" d="M77.6779 38.6454V36.8915C77.6779 35.6807 76.6963 34.6991 75.4855 34.6991H48.958C47.7472 34.6991 46.7656 35.6807 46.7656 36.8915V38.6454C46.7656 39.8562 47.7472 40.8378 48.958 40.8378H75.4856C76.6964 40.8378 77.6779 39.8562 77.6779 38.6454Z" fill="#FFD15B"/>
</g>
<path id="Vector_29" d="M52.959 38.6454V36.8915C52.959 35.6807 53.9406 34.6991 55.1514 34.6991H48.958C47.7472 34.6991 46.7656 35.6807 46.7656 36.8915V38.6454C46.7656 39.8562 47.7472 40.8378 48.958 40.8378H55.1514C53.9406 40.8378 52.959 39.8562 52.959 38.6454Z" fill="#FFC344"/>
<g id="Group_12">
<path id="Vector_30" d="M49.9039 37.7684C49.9039 37.2841 50.2964 36.8914 50.7809 36.8914H73.6627C74.147 36.8914 74.5397 37.2839 74.5397 37.7684C74.5397 38.2527 74.1472 38.6454 73.6627 38.6454H50.7809C50.2966 38.6454 49.9039 38.2527 49.9039 37.7684Z" fill="#FEB137"/>
</g>
<path id="Vector_31" d="M52.959 32.5068V30.7529C52.959 29.5421 53.9406 28.5605 55.1514 28.5605H48.958C47.7472 28.5605 46.7656 29.5421 46.7656 30.7529V32.5068C46.7656 33.7175 47.7472 34.6991 48.958 34.6991H55.1514C53.9406 34.6991 52.959 33.7175 52.959 32.5068Z" fill="#26A6FE"/>
<g id="Group_13">
<path id="Vector_32" d="M49.9039 31.6297C49.9039 31.1454 50.2964 30.7527 50.7809 30.7527H73.6627C74.147 30.7527 74.5397 31.1453 74.5397 31.6297C74.5397 32.114 74.1472 32.5067 73.6627 32.5067H50.7809C50.2966 32.5067 49.9039 32.114 49.9039 31.6297Z" fill="#0593FC"/>
</g>
<g id="Group_14">
<g id="Group_15">
<path id="Vector_33" d="M77.6779 26.3681V24.6143C77.6779 23.4035 76.6963 22.4219 75.4855 22.4219H48.958C47.7472 22.4219 46.7656 23.4035 46.7656 24.6143V26.3681C46.7656 27.5789 47.7472 28.5605 48.958 28.5605H75.4856C76.6964 28.5605 77.6779 27.5789 77.6779 26.3681Z" fill="#0593FC"/>
</g>
<path id="Vector_34" d="M52.959 26.3681V24.6143C52.959 23.4035 53.9406 22.4219 55.1514 22.4219H48.958C47.7472 22.4219 46.7656 23.4035 46.7656 24.6143V26.3681C46.7656 27.5789 47.7472 28.5605 48.958 28.5605H55.1514C53.9406 28.5605 52.959 27.5789 52.959 26.3681Z" fill="#0182FC"/>
<g id="Group_16">
<path id="Vector_35" d="M49.9039 25.4911C49.9039 25.0068 50.2964 24.6141 50.7809 24.6141H73.6627C74.147 24.6141 74.5397 25.0066 74.5397 25.4911C74.5397 25.9754 74.1472 26.3681 73.6627 26.3681H50.7809C50.2966 26.3681 49.9039 25.9756 49.9039 25.4911Z" fill="#0172FB"/>
</g>
</g>
</g>
<g id="Group_17">
<path id="Vector_36" d="M49.9039 43.907C49.9039 43.4227 50.2964 43.03 50.7809 43.03H73.6627C74.147 43.03 74.5397 43.4225 74.5397 43.907C74.5397 44.3913 74.1472 44.784 73.6627 44.784H50.7809C50.2966 44.784 49.9039 44.3913 49.9039 43.907Z" fill="#FE7701"/>
</g>
</g>
<path id="Vector_37" d="M66.1818 69.3477H34.1133V55.2539H73.5117V62.0178C73.5117 66.0659 70.23 69.3477 66.1818 69.3477Z" fill="#FE9738"/>
<g id="Group_18">
<path id="Vector_38" d="M63.0995 52.0429C62.6349 52.0429 62.2239 51.7468 62.0769 51.3059L61.8245 50.5485C61.6448 50.0097 61.1425 49.6478 60.5748 49.6478H47.6909C47.1229 49.6478 46.6207 50.0097 46.4412 50.5485L46.1888 51.3059C46.0417 51.7468 45.6308 52.0429 45.1662 52.0429H29.1038L32.7771 68.6505C33.0929 70.0786 34.3591 71.0954 35.8218 71.0954H68.1433C73.4568 66.0039 77.3387 59.4321 79.131 52.0429H63.0995ZM35.8492 60.7721L35.2864 58.2277C35.2038 57.8539 35.4882 57.4996 35.8712 57.4996H39.0978C39.3932 57.4996 39.6443 57.7149 39.6896 58.0067L40.0838 60.5511C40.14 60.914 39.8592 61.2415 39.492 61.2415H36.434C36.153 61.2415 35.9099 61.0463 35.8492 60.7721ZM40.4385 67.3534H37.7857C37.5048 67.3534 37.2616 67.1582 37.2009 66.884L36.6657 64.4643C36.5831 64.0905 36.8675 63.7363 37.2504 63.7363H40.0636C40.3589 63.7363 40.61 63.9515 40.6554 64.2435L41.0301 66.6631C41.0865 67.0259 40.8057 67.3534 40.4385 67.3534ZM42.5357 60.7343L42.1416 58.1899C42.0854 57.827 42.3661 57.4995 42.7334 57.4995H45.9584C46.2719 57.4995 46.5323 57.7411 46.5555 58.0536L46.7456 60.598C46.7716 60.9452 46.4967 61.2413 46.1486 61.2413H43.1275C42.832 61.2415 42.5809 61.0263 42.5357 60.7343ZM46.6052 67.3534H44.0742C43.7789 67.3534 43.5278 67.1381 43.4824 66.8462L43.1077 64.4265C43.0514 64.0636 43.3322 63.7361 43.6994 63.7361H46.4245C46.7379 63.7361 46.9983 63.9778 47.0216 64.2902L47.2024 66.71C47.2282 67.0573 46.9533 67.3534 46.6052 67.3534ZM52.9353 66.7547C52.9353 67.0854 52.6672 67.3536 52.3365 67.3536H50.2079C49.8944 67.3536 49.634 67.1119 49.6108 66.7994L49.43 64.3796C49.404 64.0324 49.6789 63.7363 50.0271 63.7363H52.3365C52.6672 63.7363 52.9353 64.0044 52.9353 64.3351V66.7547ZM52.9353 60.6427C52.9353 60.9734 52.6672 61.2415 52.3365 61.2415H49.7511C49.4377 61.2415 49.1773 60.9998 49.154 60.6874L48.9639 58.143C48.938 57.7956 49.2128 57.4996 49.561 57.4996H52.3363C52.6671 57.4996 52.9352 57.7677 52.9352 58.0984V60.6427H52.9353ZM58.6598 66.7993C58.6364 67.1117 58.376 67.3534 58.0627 67.3534H55.9291C55.5984 67.3534 55.3303 67.0853 55.3303 66.7546V64.3349C55.3303 64.0042 55.5984 63.7361 55.9291 63.7361H58.2434C58.5917 63.7361 58.8664 64.0322 58.8405 64.3794L58.6598 66.7993ZM59.1164 60.6874C59.093 60.9998 58.8326 61.2415 58.5193 61.2415H55.9291C55.5984 61.2415 55.3303 60.9734 55.3303 60.6427V58.0983C55.3303 57.7676 55.5984 57.4995 55.9291 57.4995H58.7094C59.0578 57.4995 59.3325 57.7956 59.3065 58.1428L59.1164 60.6874ZM65.1602 64.4265L64.7855 66.8462C64.7403 67.138 64.489 67.3534 64.1937 67.3534H61.6654C61.3171 67.3534 61.0424 67.0573 61.0684 66.71L61.2492 64.2902C61.2726 63.9778 61.533 63.7361 61.8463 63.7361H64.5686C64.9357 63.7361 65.2164 64.0636 65.1602 64.4265ZM66.1263 58.1899L65.7321 60.7343C65.687 61.0261 65.4357 61.2415 65.1404 61.2415H62.1221C61.7737 61.2415 61.499 60.9454 61.525 60.5982L61.7151 58.0538C61.7385 57.7413 61.9989 57.4996 62.3122 57.4996H65.5345C65.9017 57.4995 66.1825 57.827 66.1263 58.1899ZM71.5998 64.4643L71.0645 66.884C71.0038 67.1582 70.7607 67.3534 70.4798 67.3534H67.8292C67.462 67.3534 67.1812 67.0259 67.2374 66.663L67.6122 64.2433C67.6574 63.9515 67.9087 63.7361 68.204 63.7361H71.015C71.398 63.7361 71.6824 64.0905 71.5998 64.4643ZM72.4164 60.7721C72.3557 61.0463 72.1126 61.2415 71.8317 61.2415H68.7759C68.4087 61.2415 68.1279 60.914 68.1841 60.5511L68.5783 58.0067C68.6234 57.7149 68.8747 57.4996 69.17 57.4996H72.3945C72.7772 57.4996 73.0618 57.8539 72.9792 58.2277L72.4164 60.7721Z" fill="#60B7FF"/>
<g id="Group_19">
<path id="Vector_39" d="M38.3686 68.6505L38.0818 67.3534H37.7857C37.5048 67.3534 37.2616 67.1582 37.2009 66.884L36.6657 64.4643C36.5831 64.0905 36.8675 63.7363 37.2504 63.7363H37.2817L36.7299 61.2417H36.434C36.153 61.2417 35.9099 61.0464 35.8492 60.7723L35.2864 58.2279C35.2038 57.854 35.4882 57.4998 35.8712 57.4998H35.9022L34.6953 52.0433H29.1038L32.7771 68.6508C33.0929 70.0789 34.3591 71.0958 35.8218 71.0958H41.4134C39.9507 71.0954 38.6846 70.0788 38.3686 68.6505Z" fill="#26A6FE"/>
</g>
<path id="Vector_40" d="M80.0563 46.5417C79.8951 46.461 79.7138 46.4144 79.5213 46.4144H28.7444C28.0829 46.4144 27.5469 46.9506 27.5469 47.612V50.9652C27.5469 51.6266 28.0831 52.1629 28.7444 52.1629H45.166C45.6815 52.1629 46.1391 51.8329 46.3021 51.344L46.5545 50.5866C46.7176 50.0976 47.1751 49.7677 47.6907 49.7677H60.5746C61.0902 49.7677 61.5477 50.0975 61.7108 50.5866L61.9632 51.344C62.1262 51.8329 62.5838 52.1629 63.0993 52.1629H79.1017C79.5511 50.3358 79.873 48.4591 80.0563 46.5417Z" fill="#0593FC"/>
<g id="Group_20">
<path id="Vector_41" d="M34.9358 50.9651V47.6119C34.9358 46.9504 35.472 46.4142 36.1333 46.4142H28.7444C28.0829 46.4142 27.5469 46.9504 27.5469 47.6119V50.9651C27.5469 51.6265 28.0831 52.1627 28.7444 52.1627H36.1333C35.472 52.1627 34.9358 51.6265 34.9358 50.9651Z" fill="#0182FC"/>
</g>
</g>
<path id="Vector_42" d="M16.1758 20.0195H12.6523C12.2102 20.0195 11.8516 19.6609 11.8516 19.2188V15.6953C11.8516 15.2531 12.2102 14.8945 12.6523 14.8945H16.1758C16.618 14.8945 16.9766 15.2531 16.9766 15.6953V19.2188C16.9766 19.6609 16.618 20.0195 16.1758 20.0195Z" fill="#E2DEE2"/>
</g>
</g>
</svg>
