<svg width="32" height="32" viewBox="0 0 32 32" fill="none" xmlns="http://www.w3.org/2000/svg">
<g id="Line" clip-path="url(#clip0_118_7645)">
<g id="Group">
<path id="Vector" d="M32 0H0V32H32V0Z" fill="#00C200"/>
<g id="Group_2">
<path id="Vector_2" d="M27.6143 15.42C27.6681 15.1366 27.6947 14.8983 27.7069 14.7113C27.7272 14.4027 27.7041 13.9445 27.6959 13.8011C27.4117 8.85723 22.2825 4.91841 15.9967 4.91841C9.52843 4.91841 4.28499 9.08908 4.28499 14.2339C4.28499 18.9627 8.71483 22.8684 14.4539 23.4692C14.8047 23.5059 15.0577 23.8227 15.0188 24.1733L14.7745 26.3726C14.719 26.8719 15.2352 27.2351 15.6876 27.0167C20.5364 24.6767 23.4358 22.2693 25.1672 20.1836C25.4823 19.8041 26.5096 18.3647 26.7191 17.9867C27.1637 17.1841 27.4702 16.3223 27.6143 15.42Z" fill="white"/>
<path id="Vector_3" d="M9.55673 16.121V12.1971C9.55673 11.8662 9.2885 11.598 8.95764 11.598C8.62678 11.598 8.35855 11.8662 8.35855 12.1971V16.72C8.35855 17.0509 8.62678 17.3191 8.95764 17.3191H11.3539C11.6848 17.3191 11.953 17.0509 11.953 16.72C11.953 16.3892 11.6848 16.121 11.3539 16.121H9.55673Z" fill="#00C500"/>
<path id="Vector_4" d="M13.2521 17.3191H12.9902C12.7317 17.3191 12.5221 17.1095 12.5221 16.851V12.0661C12.5221 11.8076 12.7317 11.598 12.9902 11.598H13.2521C13.5106 11.598 13.7202 11.8076 13.7202 12.0661V16.851C13.7202 17.1095 13.5106 17.3191 13.2521 17.3191Z" fill="#00C500"/>
<path id="Vector_5" d="M18.0933 12.1971V14.9602C18.0933 14.9602 15.7008 11.8395 15.6643 11.7985C15.55 11.6703 15.3816 11.5913 15.1946 11.5984C14.8687 11.6108 14.6188 11.8956 14.6188 12.2217V16.72C14.6188 17.0508 14.887 17.3191 15.2179 17.3191C15.5488 17.3191 15.817 17.0508 15.817 16.72V13.9736C15.817 13.9736 18.2459 17.1215 18.2815 17.1553C18.3875 17.2556 18.5298 17.3177 18.6869 17.3191C19.0196 17.3221 19.2915 17.0278 19.2915 16.6951V12.1971C19.2915 11.8662 19.0233 11.598 18.6924 11.598C18.3616 11.5981 18.0933 11.8662 18.0933 12.1971Z" fill="#00C500"/>
<path id="Vector_6" d="M23.7845 12.1971C23.7845 11.8662 23.5163 11.598 23.1854 11.598H20.7891C20.4582 11.598 20.19 11.8662 20.19 12.1971V16.72C20.19 17.0509 20.4582 17.3191 20.7891 17.3191H23.1854C23.5163 17.3191 23.7845 17.0509 23.7845 16.72C23.7845 16.3892 23.5163 16.121 23.1854 16.121H21.3882V15.0576H23.1854C23.5163 15.0576 23.7845 14.7894 23.7845 14.4585C23.7845 14.1276 23.5163 13.8594 23.1854 13.8594H21.3882V12.796H23.1854C23.5163 12.7962 23.7845 12.528 23.7845 12.1971Z" fill="#00C500"/>
</g>
</g>
</g>
<defs>
<clipPath id="clip0_118_7645">
<rect width="32" height="32" fill="white"/>
</clipPath>
</defs>
</svg>
