<svg width="82" height="82" viewBox="0 0 82 82" fill="none" xmlns="http://www.w3.org/2000/svg">
<g id="Money" clip-path="url(#clip0_2120_148)">
<g id="Group">
<path id="Vector" d="M10.8885 64.7327C9.53186 65.5225 7.79497 65.1066 6.92083 63.8027C2.54969 57.2828 0 49.4391 0 41C0 18.3563 18.3563 0 41 0C63.6437 0 82 18.3563 82 41C82 49.4486 79.4447 57.3001 75.0648 63.8242C74.198 65.1154 72.4776 65.5287 71.1339 64.7457C62.677 59.8174 52.2628 56.9098 41 56.9098C29.7471 56.9098 19.3414 59.8123 10.8885 64.7327Z" fill="white"/>
<path id="Vector_2" d="M75.1264 30.5895V43.9456C75.1264 55.5747 65.6992 65.0018 54.0702 65.0018H29.269C16.9003 65.0018 6.8736 54.9751 6.8736 42.6064V30.5895C6.8736 29.9031 7.16716 29.2495 7.6803 28.7937L39.4044 0.606517C40.3145 -0.202111 41.6856 -0.202111 42.5956 0.606517L74.3197 28.7937C74.8329 29.2495 75.1264 29.9031 75.1264 30.5895Z" fill="#489160"/>
<path id="Vector_3" d="M75.1264 30.5895V34.2132C75.1264 35.8364 74.3194 37.3534 72.9733 38.2605L41 59.8041L9.27498 38.4277C7.77367 37.4162 6.8736 35.7243 6.8736 33.914V30.5895C6.8736 29.9031 7.16716 29.2495 7.6803 28.7935L9.93755 26.7881L13.7473 29.355L41 47.7181L72.0625 26.7881L74.3197 28.7935C74.8327 29.2495 75.1264 29.9031 75.1264 30.5895Z" fill="#3D7A51"/>
<path id="Vector_4" d="M53.8338 68.8148L29.6172 58.3986C29.2923 58.2588 29.142 57.8819 29.2818 57.557L51.4292 6.06704C51.569 5.74209 51.9459 5.59186 52.2708 5.73167L76.4874 16.1479C76.8124 16.2877 76.9626 16.6646 76.8228 16.9895L54.6754 68.4795C54.5356 68.8046 54.1588 68.9546 53.8338 68.8148Z" fill="#C8E2FD"/>
<path id="Vector_5" d="M53.8338 68.8148L34.075 60.316C33.7501 60.1761 33.5999 59.7993 33.7397 59.4743L55.887 7.98458C56.0269 7.65963 56.4037 7.5094 56.7287 7.64922L76.4875 16.1481C76.8124 16.2879 76.9626 16.6647 76.8228 16.9897L54.6755 68.4794C54.5356 68.8046 54.1588 68.9546 53.8338 68.8148Z" fill="#E9F3FE"/>
<path id="Vector_6" d="M50.8471 67.5302L32.6037 59.6832C32.2787 59.5434 32.1285 59.1665 32.2683 58.8416L53.1501 10.2942C53.2899 9.96924 53.6668 9.81902 53.9917 9.95883L72.2351 17.8058C72.5601 17.9457 72.7103 18.3225 72.5705 18.6475L51.6888 67.1948C51.549 67.52 51.1722 67.67 50.8471 67.5302Z" fill="#A1FFBC"/>
<path id="Vector_7" d="M51.0898 41.8359C47.0271 40.0884 45.1503 35.3782 46.8977 31.3155C48.6452 27.2528 53.3554 25.376 57.4181 27.1234C61.4808 28.8709 63.3576 33.5811 61.6102 37.6438C59.8625 41.7065 55.1525 43.5833 51.0898 41.8359ZM59.8734 14.9296C60.0133 14.6047 59.863 14.2278 59.5381 14.088L54.8301 12.063C54.5052 11.9232 54.1283 12.0734 53.9885 12.3983L51.9635 17.1063C51.8237 17.4313 51.9739 17.8081 52.2988 17.9479C55.2239 19.2061 58.6152 17.8547 59.8734 14.9296ZM67.3055 24.4027C67.6304 24.5425 68.0073 24.3923 68.1471 24.0673L70.1721 19.3594C70.3119 19.0344 70.1617 18.6576 69.8368 18.5178L65.1288 16.4927C64.8038 16.3529 64.427 16.5031 64.2872 16.8281C63.029 19.7532 64.3802 23.1445 67.3055 24.4027Z" fill="#35E298"/>
<path id="Vector_8" d="M58.6676 36.378C57.6191 38.8156 54.7931 39.9418 52.3554 38.8933C49.9178 37.8448 48.7916 35.0188 49.8402 32.5811C50.8887 30.1435 53.7147 29.0173 56.1524 30.0658C58.59 31.1144 59.716 33.9405 58.6676 36.378Z" fill="#1AB975"/>
<path id="Vector_9" d="M38.8139 80.525L32.3829 79.5637C26.6093 78.7006 22.6285 73.3205 23.4914 67.5469L30.3097 21.9323C30.3621 21.5823 30.6882 21.3411 31.038 21.3933L57.11 25.2906C57.4599 25.343 57.7011 25.669 57.6489 26.0188L50.8305 71.6334C49.9678 77.407 44.5877 81.3879 38.8139 80.525Z" fill="#C8E2FD"/>
<path id="Vector_10" d="M38.8139 80.525L37.1824 80.281C31.4087 79.418 27.4279 74.0378 28.2908 68.2642L35.1092 22.6496C35.1615 22.2997 35.4876 22.0585 35.8374 22.1107L57.11 25.2904C57.4599 25.3428 57.7011 25.6689 57.6489 26.0187L50.8306 71.6332C49.9678 77.407 44.5877 81.3879 38.8139 80.525Z" fill="#E9F3FE"/>
<path id="Vector_11" d="M35.5984 80.0443C29.8248 79.1812 25.8439 73.8011 26.7068 68.0275L33.0518 25.5808C33.1041 25.2308 33.4302 24.9897 33.78 25.0419L53.4211 27.9778C53.771 28.0302 54.0122 28.3563 53.96 28.7061L47.6151 71.1528C46.7523 76.9264 41.3722 80.9072 35.5984 80.0443Z" fill="#A1FFBC"/>
<path id="Vector_12" d="M39.1022 56.6053C34.7281 55.9515 31.7124 51.8756 32.3662 47.5017C33.0199 43.1277 37.0959 40.1119 41.4698 40.7657C45.8438 41.4194 48.8595 45.4954 48.2058 49.8693C47.552 54.2433 43.476 57.2591 39.1022 56.6053ZM40.7348 28.3486C40.7872 27.9987 40.5458 27.6726 40.1959 27.6204L35.1273 26.8627C34.7773 26.8103 34.4512 27.0517 34.399 27.4016L33.6413 32.4702C33.589 32.8202 33.8303 33.1463 34.1803 33.1985C37.3296 33.6693 40.2641 31.4979 40.7348 28.3486ZM50.3367 35.6136C50.6866 35.666 51.0127 35.4246 51.0649 35.0747L51.8226 30.0061C51.875 29.6561 51.6336 29.3301 51.2837 29.2778L46.215 28.5201C45.8651 28.4678 45.539 28.7091 45.4868 29.0591C45.0161 32.2082 47.1873 35.1428 50.3367 35.6136Z" fill="#35E298"/>
<path id="Vector_13" d="M45.0379 49.3957C44.6456 52.02 42.2 53.8296 39.5757 53.4373C36.9514 53.045 35.1418 50.5994 35.5342 47.9751C35.9264 45.3506 38.372 43.5412 40.9963 43.9336C43.6206 44.3258 45.4301 46.7714 45.0379 49.3957Z" fill="#1AB975"/>
<g id="Group_2">
<path id="Vector_14" d="M37.705 8.00781C37.705 12.4304 34.1197 16.0156 29.6971 16.0156C25.2746 16.0156 21.6893 12.4304 21.6893 8.00781C21.6893 3.58526 25.2746 0 29.6971 0C34.1197 0 37.705 3.58526 37.705 8.00781Z" fill="#FFC14F"/>
<path id="Vector_15" d="M23.9796 24.0234C23.9796 28.446 20.3943 32.0312 15.9717 32.0312C11.5492 32.0312 7.96393 28.446 7.96393 24.0234C7.96393 19.6009 11.5492 16.0156 15.9717 16.0156C20.3943 16.0156 23.9796 19.6009 23.9796 24.0234Z" fill="#FFC14F"/>
<path id="Vector_16" d="M36.7921 44.8438C36.7921 49.2663 33.2068 52.8516 28.7842 52.8516C24.3617 52.8516 20.7764 49.2663 20.7764 44.8438C20.7764 40.4212 24.3617 36.8359 28.7842 36.8359C33.2068 36.8359 36.7921 40.4212 36.7921 44.8438Z" fill="#FFC14F"/>
</g>
<path id="Vector_17" d="M29.6971 3.20312C27.0435 3.20312 24.8924 5.35418 24.8924 8.00781C24.8924 10.6614 27.0435 12.8125 29.6971 12.8125C32.3508 12.8125 34.5018 10.6614 34.5018 8.00781C34.5018 5.35418 32.3506 3.20312 29.6971 3.20312ZM15.9717 19.2188C13.3181 19.2188 11.1671 21.3698 11.1671 24.0234C11.1671 26.6771 13.3181 28.8281 15.9717 28.8281C18.6254 28.8281 20.7764 26.6771 20.7764 24.0234C20.7764 21.3698 18.6252 19.2188 15.9717 19.2188ZM28.7842 40.0391C26.1306 40.0391 23.9796 42.1901 23.9796 44.8438C23.9796 47.4974 26.1306 49.6484 28.7842 49.6484C31.4379 49.6484 33.5889 47.4974 33.5889 44.8438C33.5889 42.1901 31.4377 40.0391 28.7842 40.0391Z" fill="#FF9F22"/>
<path id="Vector_18" d="M34.0348 10.0764C33.2617 11.6946 31.61 12.8125 29.6971 12.8125C27.0435 12.8125 24.8924 10.6613 24.8924 8.00781C24.8924 6.09491 26.0105 4.44306 27.6286 3.66998C27.3292 4.29651 27.1617 4.998 27.1617 5.73856C27.1617 8.39203 29.3128 10.5432 31.9664 10.5432C32.7069 10.5432 33.4084 10.3756 34.0348 10.0764ZM20.3094 26.092C19.5365 27.7102 17.8846 28.8281 15.9717 28.8281C13.3181 28.8281 11.1671 26.6769 11.1671 24.0234C11.1671 22.1105 12.2851 20.4587 13.9032 19.6856C13.6038 20.3121 13.4363 21.0136 13.4363 21.7542C13.4363 24.4077 15.5874 26.5589 18.241 26.5589C18.9816 26.5589 19.683 26.3912 20.3094 26.092ZM33.1219 46.9123C32.349 48.5305 30.6971 49.6484 28.7842 49.6484C26.1306 49.6484 23.9796 47.4972 23.9796 44.8438C23.9796 42.9308 25.0976 41.279 26.7157 40.5059C26.4163 41.1325 26.2488 41.8339 26.2488 42.5745C26.2488 45.228 28.3999 47.3792 31.0535 47.3792C31.7941 47.3792 32.4955 47.2115 33.1219 46.9123Z" fill="#FF9100"/>
<path id="Vector_19" d="M30.4979 10.4102V5.60546C30.4979 5.16327 30.1393 4.80468 29.6971 4.80468C29.2549 4.80468 28.8963 5.16327 28.8963 5.60546V10.4102C28.8963 10.8523 29.2549 11.2109 29.6971 11.2109C30.1393 11.2109 30.4979 10.8523 30.4979 10.4102ZM26.1195 3.21882C25.3176 2.41691 25.5755 1.0479 26.6224 0.612273C27.6391 0.189141 28.7618 -0.0337969 29.9394 0.00432024C34.4539 0.150703 37.6218 3.56123 37.7456 7.76661C37.7804 8.94424 37.5163 10.0666 37.0933 11.0831C36.6575 12.1301 35.2885 12.3879 34.4867 11.586C34.0232 11.1225 33.9006 10.4283 34.148 9.82126C34.4224 9.14812 34.4962 8.39891 34.4336 7.61398C34.2481 5.28852 32.4167 3.40492 30.0912 3.21946C29.3065 3.15684 28.5573 3.28304 27.8843 3.55739C27.2773 3.80499 26.583 3.68231 26.1195 3.21882ZM16.7725 26.4258V21.6211C16.7725 21.1789 16.4139 20.8203 15.9717 20.8203C15.5295 20.8203 15.1709 21.1789 15.1709 21.6211V26.4258C15.1709 26.868 15.5295 27.2266 15.9717 27.2266C16.4139 27.2266 16.7725 26.868 16.7725 26.4258ZM12.3941 19.2344C11.5922 18.4325 11.8501 17.0635 12.897 16.6279C13.9137 16.2048 15.0364 15.9818 16.214 16.0199C20.7285 16.1663 23.8964 19.5769 24.0202 23.7822C24.055 24.9599 23.7909 26.0822 23.3677 27.0988C22.9319 28.1457 21.5629 28.4035 20.7612 27.6016C20.2977 27.1382 20.175 26.4439 20.4225 25.8369C20.697 25.1637 20.7706 24.4145 20.708 23.6296C20.5226 21.3041 18.6912 19.4205 16.3657 19.2351C15.5809 19.1725 14.8317 19.2987 14.1587 19.573C13.5519 19.8206 12.8576 19.6979 12.3941 19.2344ZM29.585 47.2461V42.4414C29.585 41.9992 29.2264 41.6406 28.7842 41.6406C28.342 41.6406 27.9834 41.9992 27.9834 42.4414V47.2461C27.9834 47.6883 28.342 48.0469 28.7842 48.0469C29.2264 48.0469 29.585 47.6883 29.585 47.2461ZM25.2066 40.0548C24.4047 39.2529 24.6626 37.8838 25.7095 37.4482C26.7262 37.0251 27.8489 36.8021 29.0265 36.8403C33.541 36.9866 36.7089 40.3972 36.8327 44.6025C36.8675 45.7802 36.6034 46.9026 36.1802 47.9191C35.7444 48.966 34.3754 49.2239 33.5737 48.422C33.1102 47.9585 32.9875 47.2642 33.235 46.6572C33.5095 45.9841 33.5831 45.2348 33.5205 44.4499C33.3351 42.1245 31.5037 40.2409 29.1782 40.0554C28.3934 39.9928 27.6442 40.119 26.9712 40.3933C26.3644 40.6409 25.6701 40.5182 25.2066 40.0548Z" fill="#FFCD71"/>
<path id="Vector_20" d="M75.1264 33.0518V57.6562L73.4368 58.4229L73.5186 63.2071C73.4472 63.3141 74.9831 63.9457 74.9107 64.0519C69.5688 71.8948 61.5774 77.7884 52.2239 80.4446C51.8892 80.5395 52.0333 80.15 51.6952 80.2367C49.0056 80.9265 46.2092 81.3501 43.3359 81.4781C42.9235 81.4965 42.029 81.9891 41.6134 81.9952C41.4092 81.9986 41.2048 82 41 82C38.3485 82 35.7557 81.7482 33.2443 81.2674C32.8668 81.1952 32.8114 80.7974 32.4376 80.7149C30.7031 80.3318 29.0097 79.8389 27.3654 79.2437C27.0834 79.1417 26.4825 79.3568 26.2033 79.2488C23.9486 78.376 21.7905 77.3097 19.7492 76.0701C19.5136 75.927 19.7601 75.3011 19.5277 75.1535C18.1441 74.2747 16.8167 73.3152 15.5523 72.2817C15.3553 72.1208 14.6794 72.4385 14.4855 72.2739C14.2187 72.0474 13.9547 71.8176 13.6938 71.5846C12.7295 70.7229 12.1719 69.4956 12.1719 68.2027V36.9708C12.6749 37.0856 13.1725 37.2961 13.6436 37.6133L41 56.0462L75.1264 33.0518Z" fill="#1AB975"/>
<path id="Vector_21" d="M13.7473 37.6833V71.6321C12.293 70.3373 10.9313 68.9402 9.67377 67.4525C8.75799 66.3692 7.84767 58.2969 7.84767 58.2969L6.8736 57.6562V33.0518L13.7473 37.6833Z" fill="#169B62"/>
<path id="Vector_22" d="M29.0989 48.0272L13.1328 63.9935V54.9336L23.6863 44.3801L29.0989 48.0272ZM66.7688 38.683L26.2033 79.2487C28.4606 80.1225 30.8144 80.8022 33.2443 81.2674L75.1263 39.3855V33.0519L66.7688 38.683ZM13.1328 37.2693V45.8503L18.2594 40.7237L13.1328 37.2693ZM34.8542 51.905L14.4855 72.2737C16.1332 73.672 17.8928 74.9426 19.7492 76.0699L40.2668 55.5523L34.8542 51.905ZM52.2237 80.4447L75.1263 57.5422V48.4825L41.6132 81.9955C45.2874 81.9415 48.8445 81.4045 52.2237 80.4447Z" fill="#1ED688"/>
<path id="Vector_23" d="M13.7473 37.6833V45.2358L6.87372 52.1094V43.0497L12.8467 37.0767L13.7473 37.6833ZM7.06174 63.878C7.07439 63.981 7.08609 64.0474 7.0965 64.0627C7.89744 65.2379 8.75812 66.3692 9.67373 67.4525L13.7473 63.379V54.3192L8.59556 59.4708C7.43795 60.6284 6.86251 62.2529 7.06174 63.878Z" fill="#1AB975"/>
<path id="Vector_24" d="M13.931 57.6562C15.1701 57.6562 16.1647 58.6785 16.1307 59.9172C16.1128 60.5729 16.0922 61.2865 16.071 61.9339C16.0323 63.1208 15.0591 64.0625 13.8716 64.0625H7.09666C7.02186 63.9526 6.94755 63.8426 6.87372 63.7321V57.6562H13.931Z" fill="#C42D2D"/>
<path id="Vector_25" d="M55.1594 72.9768L50.2027 72.6373L46.884 76.3345L40.3922 60.3353L33.9004 76.3345L30.5817 72.6373L25.625 72.9768L33.8148 52.7929L40.3922 55.4618L46.9697 52.7929L55.1594 72.9768Z" fill="#D63030"/>
<path id="Vector_26" d="M75.1264 57.6562V63.7321C75.0601 63.8426 74.9932 63.9526 74.9261 64.0625H13.7734V57.6562H75.1264Z" fill="#D63030"/>
<path id="Vector_27" d="M40.7229 54.7062L48.1487 47.2804C49.2621 46.167 51.0673 46.167 52.1807 47.2804L54.3971 49.4968C58.3875 53.4872 58.3875 59.9571 54.3971 63.9475L52.1807 66.1639C51.0673 67.2773 49.2621 67.2773 48.1487 66.1639L40.7229 58.7381C39.6097 57.6247 39.6097 55.8196 40.7229 54.7062Z" fill="#F76C57"/>
<path id="Vector_28" d="M41.2771 58.7381L33.8513 66.1639C32.7379 67.2773 30.9328 67.2773 29.8193 66.1639L27.6029 63.9475C23.6125 59.9571 23.6125 53.4872 27.6029 49.4968L29.8193 47.2804C30.9328 46.167 32.7379 46.167 33.8513 47.2804L41.2771 54.7062C42.3903 55.8196 42.3903 57.6247 41.2771 58.7381Z" fill="#F44545"/>
<path id="Vector_29" d="M39.5892 56.7573C39.5892 57.1995 37.5456 57.5581 35.0247 57.5581C32.5039 57.5581 30.4603 57.1995 30.4603 56.7573C30.4603 56.3151 32.5039 55.9565 35.0247 55.9565C37.5456 55.9565 39.5892 56.3151 39.5892 56.7573ZM37.6511 53.3322C35.4397 52.1222 33.4747 51.4558 33.2625 51.8439C33.0503 52.2319 34.6709 53.5273 36.8824 54.7372C39.0938 55.9472 41.0588 56.6136 41.271 56.2256C41.4833 55.8375 39.8627 54.5422 37.6511 53.3322ZM41.2711 57.289C41.0589 56.901 39.094 57.5674 36.8825 58.7773C34.6711 59.9873 33.0503 61.2828 33.2627 61.6707C33.4749 62.0588 35.4398 61.3924 37.6513 60.1824C39.8627 58.9724 41.4833 57.6771 41.2711 57.289Z" fill="#D63030"/>
<path id="Vector_30" d="M42.4108 56.7573C42.4108 56.3151 44.4544 55.9565 46.9753 55.9565C49.4962 55.9565 51.5397 56.3151 51.5397 56.7573C51.5397 57.1995 49.4962 57.5581 46.9753 57.5581C44.4544 57.5581 42.4108 57.1996 42.4108 56.7573ZM44.3489 60.1826C46.5603 61.3925 48.5253 62.0589 48.7375 61.6709C48.9497 61.2828 47.3291 59.9875 45.1176 58.7775C42.9062 57.5675 40.9412 56.9011 40.729 57.2892C40.5167 57.6771 42.1373 58.9724 44.3489 60.1826ZM40.7289 56.2256C40.9411 56.6136 42.906 55.9472 45.1175 54.7372C47.3289 53.5273 48.9497 52.2318 48.7373 51.8439C48.5251 51.4558 46.5602 52.1222 44.3487 53.3322C42.1373 54.5422 40.5167 55.8375 40.7289 56.2256Z" fill="#F44545"/>
<path id="Vector_31" d="M44.9107 58.8262C44.1019 60.3518 42.4264 61.3477 40.5402 61.1574C38.475 60.9491 36.8081 59.2823 36.5999 57.2169C36.409 55.3242 37.4125 53.6434 38.9473 52.838C39.1477 52.7329 39.3778 52.9151 39.3278 53.1358C39.2311 53.5643 39.1965 54.0162 39.234 54.4818C39.4065 56.6213 41.137 58.3515 43.2766 58.5233C43.7353 58.5602 44.1809 58.527 44.6035 58.4335C44.8316 58.383 45.0201 58.6199 44.9107 58.8262Z" fill="#D63030"/>
<path id="Vector_32" d="M45.4234 56.7573C45.4234 57.5108 45.2349 58.2205 44.9025 58.8414C44.2816 59.1737 43.572 59.3622 42.8184 59.3622C40.3754 59.3622 38.3951 57.3817 38.3951 54.9389C38.3951 54.1853 38.5836 53.4757 38.9159 52.8548C39.5368 52.5224 40.2465 52.3339 41 52.3339C43.443 52.3339 45.4234 54.3143 45.4234 56.7573Z" fill="#F44545"/>
<path id="Vector_33" d="M44.2007 55.2236C44.5809 55.9437 44.5 56.7329 44.0199 56.9865C43.5399 57.24 42.8424 56.8617 42.4622 56.1416C42.082 55.4216 42.1629 54.6323 42.643 54.3788C43.1232 54.1251 43.8205 54.5034 44.2007 55.2236Z" fill="#F76C57"/>
</g>
</g>
<defs>
<clipPath id="clip0_2120_148">
<rect width="82" height="82" fill="white"/>
</clipPath>
</defs>
</svg>
