<svg width="26" height="29" viewBox="0 0 26 29" fill="none" xmlns="http://www.w3.org/2000/svg">
<g id="Group">
<path id="Vector" d="M22.7686 18.8157C22.3683 18.8157 22.0426 18.49 22.0426 18.0896V12.961C22.0426 8.91194 19.3675 5.47599 15.6918 4.3275C15.8023 4.01978 15.8607 3.6931 15.8607 3.36069C15.8607 1.78333 14.5774 0.5 13 0.5C11.4225 0.5 10.1392 1.78333 10.1392 3.36075C10.1392 3.69573 10.1964 4.02193 10.3062 4.32816C6.63153 5.4772 3.95729 8.91266 3.95729 12.9611V18.0897C3.95729 18.49 3.63159 18.8157 3.2313 18.8157C1.63041 18.8157 0.328064 20.1181 0.328064 21.719C0.328064 23.3198 1.63041 24.6222 3.2313 24.6222H10.004C9.93863 24.8746 9.90438 25.1368 9.90438 25.4045C9.90438 27.1114 11.2931 28.5001 13 28.5001C14.7068 28.5001 16.0955 27.1114 16.0955 25.4045C16.0955 25.1369 16.0613 24.8746 15.9958 24.6222H22.7686C24.3695 24.6222 25.6718 23.3198 25.6718 21.719C25.6719 20.1181 24.3695 18.8157 22.7686 18.8157ZM11.7883 3.36075C11.7883 2.69264 12.3319 2.1491 13 2.1491C13.6681 2.1491 14.2116 2.69264 14.2116 3.36075C14.2116 3.5798 14.1524 3.79303 14.0421 3.97883C13.7001 3.93942 13.3524 3.91842 13 3.91842C12.6479 3.91842 12.3006 3.93936 11.9589 3.97872C11.8485 3.79347 11.7883 3.58195 11.7883 3.36075ZM14.4465 25.4044C14.4465 26.202 13.7976 26.8509 13 26.8509C12.2025 26.8509 11.5535 26.202 11.5535 25.4044C11.5535 25.1226 11.6339 24.8533 11.7831 24.6221H14.2168C14.3661 24.8533 14.4465 25.1226 14.4465 25.4044ZM22.7686 22.973H3.2313C2.53978 22.973 1.97716 22.4104 1.97716 21.7189C1.97716 21.0274 2.53978 20.4648 3.2313 20.4648C4.54091 20.4648 5.60639 19.3993 5.60639 18.0896V12.961C5.60639 8.88418 8.92311 5.56746 13 5.56746C17.0768 5.56746 20.3935 8.88418 20.3935 12.961V18.0896C20.3935 19.3993 21.459 20.4648 22.7686 20.4648C23.4601 20.4648 24.0228 21.0274 24.0228 21.7189C24.0228 22.4104 23.4601 22.973 22.7686 22.973Z" fill="#2267A8"/>
</g>
</svg>
