<svg width="54" height="54" viewBox="0 0 54 54" fill="none" xmlns="http://www.w3.org/2000/svg">
<g id="Scissors">
<g id="Group">
<path id="Vector" d="M53.4545 15.8747C53.5719 14.9225 53.7007 13.9639 53.8036 13.0196C53.8122 12.9415 53.8203 12.8637 53.8284 12.7859C52.0814 11.6919 50.0116 7.87535 49.5656 6.14071C48.5677 6.28562 47.4921 6.29111 46.3754 6.22318C45.4447 6.16665 44.4857 6.05939 43.5202 5.94042C42.5679 5.82314 41.6093 5.69426 40.6651 5.59132C40.2946 5.55093 39.9266 5.51486 39.5618 5.48469C37.1713 7.40654 35.0818 9.07116 33.8397 10.2562C33.9313 11.1316 33.927 12.0605 33.8687 13.0196C33.812 13.9502 33.7049 14.9093 33.5859 15.8747C33.4686 16.827 33.3397 17.7856 33.2368 18.7299C33.0431 20.5066 32.9406 22.2324 33.1781 23.7684C33.4127 25.2872 34.942 26.227 36.4248 25.8234C37.6998 25.4764 39.1447 25.4338 40.6651 25.5262C41.5957 25.5828 42.5548 25.69 43.5202 25.8089C44.4725 25.9263 45.4311 26.0551 46.3754 26.158C48.1521 26.3518 49.8779 26.4542 51.4139 26.2168C52.9327 25.9821 53.8725 24.4528 53.4689 22.97C53.1219 21.695 53.0793 20.2501 53.1717 18.7298C53.2283 17.7991 53.3356 16.8402 53.4545 15.8747Z" fill="#FF6E80"/>
<path id="Vector_2" d="M53.4689 22.9701C53.4234 22.8033 53.3835 22.6335 53.3482 22.461C40.9209 22.015 39.8836 12.8727 41.8253 5.72811C41.4372 5.68013 41.0497 5.6333 40.6649 5.59143C40.2944 5.55103 39.9265 5.51496 39.5616 5.4848C37.1712 7.40665 35.0816 9.07126 33.8395 10.2563C33.9312 11.1317 33.9269 12.0607 33.8685 13.0197C33.8119 13.9504 33.7047 14.9094 33.5858 15.8748C33.4685 16.8271 33.3397 17.7857 33.2367 18.7299C33.0429 20.5067 32.9405 22.2324 33.1779 23.7684C33.4126 25.2872 34.9419 26.227 36.4247 25.8234C37.6997 25.4764 39.1446 25.4338 40.6649 25.5262C41.5956 25.5828 42.5546 25.69 43.5201 25.8089C44.4724 25.9262 45.431 26.055 46.3752 26.158C48.152 26.3518 49.8777 26.4542 51.4138 26.2168C52.9327 25.9822 53.8725 24.4529 53.4689 22.9701Z" fill="#F8475E"/>
<path id="Vector_3" d="M35.6893 5.52308C34.1438 5.75184 33.1615 7.2726 33.5717 8.78006C33.6996 9.25056 33.786 9.74426 33.8396 10.2562C34.4087 10.5665 35.0613 10.743 35.7552 10.743C37.9681 10.743 39.762 8.94913 39.762 6.73608C39.762 6.29891 39.6911 5.87851 39.5617 5.48459C38.2009 5.37195 36.8881 5.34558 35.6893 5.52308Z" fill="#FF96C0"/>
<path id="Vector_4" d="M47.4938 21.3583C47.6753 20.9012 47.776 20.4034 47.776 19.8817C47.776 17.6688 45.9821 15.8747 43.769 15.8747C43.1504 15.8747 42.5647 16.0151 42.0415 16.2655C41.6924 19.5517 44.1123 21.8521 47.4938 21.3583Z" fill="#FFBDD7"/>
<path id="Vector_5" d="M42.0415 16.2655C40.6934 16.9108 39.7621 18.2873 39.7621 19.8816C39.7621 22.0945 41.5561 23.8886 43.7691 23.8886C45.4604 23.8886 46.9059 22.8402 47.4939 21.3583C44.7121 20.2588 42.9947 18.434 42.0415 16.2655Z" fill="#FF96C0"/>
<path id="Vector_6" d="M50.6156 5.92608C50.2771 6.01815 49.9263 6.08829 49.5655 6.14071C48.7688 6.87308 48.2693 7.92345 48.2693 9.09088C48.2693 11.3038 50.0633 13.0978 52.2762 13.0978C52.8265 13.0978 53.3509 12.9867 53.8283 12.786C54.0054 11.0918 54.0892 9.44968 53.8622 7.98114C53.6277 6.46228 52.0984 5.52245 50.6156 5.92608Z" fill="#FFBDD7"/>
<path id="Vector_7" d="M43.4727 21.4111H21.4082C20.4324 21.4111 19.6291 20.6619 19.5399 19.6902C19.0804 14.6862 14.8392 10.7522 9.6739 10.8129C4.44349 10.8741 0.145325 15.1031 0.0036809 20.3321C-0.146085 25.864 4.29362 30.3955 9.79171 30.3955H39.4585C43.0479 30.3955 45.9578 27.4856 45.9578 23.8962C45.9578 22.5237 44.8452 21.4111 43.4727 21.4111ZM9.79171 24.4464C7.66947 24.4464 5.94906 22.726 5.94906 20.6037C5.94906 18.4815 7.66947 16.7611 9.79171 16.7611C11.9139 16.7611 13.6344 18.4815 13.6344 20.6037C13.6344 22.726 11.9139 24.4464 9.79171 24.4464Z" fill="#EEECFF"/>
<path id="Vector_8" d="M31.8251 27.3673V21.4111H21.4082C20.4324 21.4111 19.6291 20.6619 19.5399 19.6902C19.308 17.1649 18.1122 14.9132 16.3215 13.3088V30.3956H37.9995C36.2457 28.8479 34.1189 27.8027 31.8251 27.3673Z" fill="#D3D3FF"/>
<path id="Vector_9" d="M26.0804 4.0211C22.491 4.0211 19.5811 6.93098 19.5811 10.5204V40.1872C19.5811 45.6853 24.1126 50.125 29.6445 49.9752C34.8735 49.8336 39.1024 45.5354 39.1638 40.305C39.2245 35.1397 35.2905 30.8984 30.2865 30.439C29.3148 30.3498 28.5656 29.5464 28.5656 28.5706V6.50616C28.5655 5.13369 27.4529 4.0211 26.0804 4.0211ZM29.3727 36.3445C31.495 36.3445 33.2154 38.0649 33.2154 40.1872C33.2154 42.3094 31.495 44.0298 29.3727 44.0298C27.2505 44.0298 25.5301 42.3094 25.5301 40.1872C25.5301 38.0649 27.2506 36.3445 29.3727 36.3445Z" fill="#EEECFF"/>
<path id="Vector_10" d="M24.0732 26.6941C23.6328 26.6941 23.2822 26.3348 23.2822 25.9031C23.2822 25.5111 23.5683 25.1936 23.9193 25.1279C24.4014 25.0287 24.8643 25.4021 24.8643 25.9031C24.8643 26.3354 24.5144 26.6941 24.0732 26.6941Z" fill="#4677D4"/>
</g>
</g>
</svg>
