<svg width="72" height="72" viewBox="0 0 72 72" fill="none" xmlns="http://www.w3.org/2000/svg">
<g id="Sun" clip-path="url(#clip0_2120_8)">
<g id="Group">
<path id="Vector" d="M48.7914 46.9153C56.1322 46.9153 62.0831 40.9644 62.0831 33.6236C62.0831 26.2827 56.1322 20.3318 48.7914 20.3318C41.4505 20.3318 35.4996 26.2827 35.4996 33.6236C35.4996 40.9644 41.4505 46.9153 48.7914 46.9153Z" fill="#FED402"/>
<path id="Vector_2" d="M48.7914 46.9153C54.1703 46.9153 58.8026 43.72 60.8945 39.1242C59.4571 38.5799 57.9001 38.2809 56.2742 38.2809H55.0552C52.7114 35.704 49.5853 33.9871 46.1652 33.3948C44.5169 30.5118 42.1987 28.0607 39.39 26.2457C39.0108 26.0006 38.6239 25.7705 38.2316 25.5518C36.5183 27.7897 35.4996 30.5875 35.4996 33.6236C35.4996 40.9643 41.4505 46.9153 48.7914 46.9153Z" fill="#FAC600"/>
<path id="Vector_3" d="M42.631 33.6236C42.631 27.518 46.7496 22.3744 52.3587 20.816C51.2239 20.5007 50.0266 20.3318 48.7914 20.3318C41.4506 20.3318 35.4996 26.2826 35.4996 33.6236C35.4996 40.9643 41.4505 46.9153 48.7914 46.9153C50.0266 46.9153 51.2222 46.7461 52.3571 46.4308C46.7479 44.8724 42.631 39.7291 42.631 33.6236Z" fill="#FAC600"/>
<g id="Group_2">
<g id="Group_3">
<path id="Vector_4" d="M48.7746 16.9727C48.7739 16.9727 48.7734 16.9727 48.7727 16.9727C48.1818 16.9716 47.7038 16.4918 47.7049 15.901L47.7132 11.4706C47.7143 10.8804 48.193 10.4029 48.7829 10.4029H48.7849C49.3758 10.404 49.8538 10.8838 49.8527 11.4746L49.8444 15.905C49.8432 16.4952 49.3644 16.9727 48.7746 16.9727Z" fill="#FED402"/>
</g>
<g id="Group_4">
<path id="Vector_5" d="M57.6347 19.3449C57.4525 19.3449 57.268 19.2984 57.0991 19.2005C56.5881 18.9041 56.414 18.2496 56.7104 17.7384L58.9328 13.9058C59.2294 13.3949 59.8839 13.2208 60.3949 13.5171C60.906 13.8136 61.0801 14.468 60.7836 14.9792L58.5612 18.8118C58.3628 19.1538 58.0037 19.3449 57.6347 19.3449Z" fill="#FED402"/>
</g>
<g id="Group_5">
<path id="Vector_6" d="M64.1247 25.8298C63.7543 25.8298 63.3941 25.6373 63.1964 25.2931C62.902 24.7809 63.0784 24.1272 63.5907 23.8327L67.4316 21.6247C67.9436 21.33 68.5977 21.5068 68.892 22.019C69.1865 22.5312 69.01 23.185 68.4977 23.4794L64.6568 25.6874C64.4888 25.784 64.3055 25.8298 64.1247 25.8298Z" fill="#FED402"/>
</g>
<g id="Group_6">
<path id="Vector_7" d="M70.9303 34.6982C70.9296 34.6982 70.929 34.6982 70.9283 34.6982L66.4981 34.6899C65.9072 34.6888 65.4292 34.209 65.4303 33.6182C65.4314 33.028 65.9101 32.5504 66.5 32.5504H66.502L70.9323 32.5587C71.5232 32.5599 72.0011 33.0397 72 33.6304C71.9989 34.2206 71.5202 34.6982 70.9303 34.6982Z" fill="#FED402"/>
</g>
<g id="Group_7">
<path id="Vector_8" d="M39.9154 19.3491C39.545 19.3491 39.1849 19.1566 38.9871 18.8124L36.7792 14.9715C36.4847 14.4593 36.6612 13.8056 37.1735 13.5111C37.6855 13.2163 38.3396 13.393 38.6339 13.9054L40.8418 17.7463C41.1363 18.2584 40.9598 18.9122 40.4475 19.2067C40.2795 19.3033 40.0962 19.3491 39.9154 19.3491Z" fill="#FED402"/>
</g>
</g>
<path id="Vector_9" d="M56.2742 41.1334H53.7171C51.5426 38.2386 48.1683 36.2964 44.3325 36.0454C41.4644 29.9811 35.2907 25.786 28.1371 25.786C20.9835 25.786 14.8098 29.9812 11.9417 36.0454C5.27344 36.4819 0 42.0287 0 48.8073C0 55.8707 5.72611 61.5968 12.7896 61.5968H56.2742C61.9251 61.5968 66.5059 57.016 66.5059 51.3651C66.5059 45.7144 61.9251 41.1334 56.2742 41.1334Z" fill="#EAF6FF"/>
<g id="Group_8">
<path id="Vector_10" d="M4.2788 48.8073C4.2788 42.0287 9.55223 36.4818 16.2205 36.0454C18.7982 30.5951 24.0469 26.6566 30.2766 25.9147C29.5748 25.8311 28.8613 25.786 28.1371 25.786C20.9835 25.786 14.8098 29.9811 11.9417 36.0454C5.27344 36.4819 0 42.0287 0 48.8073C0 55.8707 5.72611 61.5968 12.7896 61.5968H17.0684C10.0049 61.597 4.2788 55.8709 4.2788 48.8073Z" fill="#D8ECFE"/>
<path id="Vector_11" d="M24.5098 47.7295C24.5098 48.3204 24.9888 48.7993 25.5795 48.7993C26.1703 48.7993 26.6493 48.3204 26.6493 47.7295C26.6493 44.0068 25.1233 40.5229 22.3529 37.9199C19.8679 35.5856 16.6243 34.1956 13.1186 33.9411C12.6831 34.6105 12.2902 35.3101 11.9458 36.0374C18.9913 36.0394 24.5098 41.1744 24.5098 47.7295Z" fill="#D8ECFE"/>
<path id="Vector_12" d="M47.1123 52.4257C47.1123 51.8348 46.6335 51.356 46.0426 51.356C45.4517 51.356 44.9728 51.8348 44.9728 52.4257C44.9728 56.1985 46.833 59.5431 49.6825 61.597H56.2742C56.3127 61.597 56.3507 61.5944 56.3891 61.594C56.3514 61.5899 56.3131 61.5877 56.2742 61.5877C51.2222 61.5877 47.1123 57.4776 47.1123 52.4257Z" fill="#D8ECFE"/>
<path id="Vector_13" d="M35.0288 37.9002C34.6255 38.3318 34.6484 39.0088 35.08 39.4122C35.2862 39.605 35.5484 39.7004 35.8101 39.7004C36.096 39.7004 36.3814 39.5865 36.5919 39.3611C38.5888 37.2241 41.2985 36.0474 44.2218 36.0474C44.2586 36.0474 44.295 36.0455 44.3309 36.0419C43.9882 35.3175 43.597 34.6209 43.164 33.9539C40.077 34.217 37.1579 35.622 35.0288 37.9002Z" fill="#D8ECFE"/>
</g>
</g>
</g>
<defs>
<clipPath id="clip0_2120_8">
<rect width="72" height="72" fill="white"/>
</clipPath>
</defs>
</svg>
