<svg width="64" height="64" viewBox="0 0 64 64" fill="none" xmlns="http://www.w3.org/2000/svg">
<g id="Washing machine" clip-path="url(#clip0_2122_277)">
<g id="Group">
<g id="Group_2">
<g id="Group_3">
<path id="Vector" d="M43.0165 63.7425L40.3372 64H35.4925C35.1112 64 34.7699 63.7631 34.6367 63.4058L33.4443 60.2094L39.3834 57.553L45.0649 60.2094L43.8725 63.1483C43.7392 63.5055 43.3979 63.7425 43.0165 63.7425Z" fill="#918291"/>
<path id="Vector_2" d="M41.9591 57.3079L42.103 60.2094L40.9106 63.4058C40.7774 63.763 40.4361 64 40.0547 64H43.2741C43.6555 64 43.9968 63.7631 44.13 63.4058L45.3224 60.2094L41.9591 57.3079Z" fill="#7A6D79"/>
<path id="Vector_3" d="M16.1225 63.7425L13.443 64H8.59836C8.21698 64 7.87573 63.7631 7.74248 63.4058L6.55011 60.2094L12.4892 57.553L18.1707 60.2094L16.9784 63.1483C16.845 63.5055 16.5037 63.7425 16.1225 63.7425Z" fill="#918291"/>
<path id="Vector_4" d="M15.065 57.3079L15.2089 60.2094L14.0165 63.4058C13.8833 63.763 13.542 64 13.1606 64H16.38C16.7614 64 17.1026 63.7631 17.2359 63.4058L18.4283 60.2094L15.065 57.3079Z" fill="#7A6D79"/>
<g id="Group_4">
<path id="Vector_5" d="M2.43427 54.8343V56.5671C2.43427 57.2502 2.70564 57.9052 3.18864 58.3882L4.25539 59.455C4.73839 59.938 5.39339 60.2094 6.07651 60.2094H43.121L45.4529 59.6185C46.1359 59.6185 46.791 59.3471 47.274 58.8641L48.3158 57.553C48.7988 57.07 48.7806 56.5926 48.7806 55.9095V54.1766L44.0015 50.9258H7.61264L2.43427 54.8343Z" fill="#C4E2FF"/>
<path id="Vector_6" d="M2.43427 10.6754H48.6445V54.8342H2.43427V10.6754Z" fill="#D8ECFE"/>
<path id="Vector_7" d="M47.0007 51.2365L45.9614 54.8344V56.5672C45.9614 57.2504 45.69 57.9054 45.207 58.3884L44.1403 59.4551C43.6573 59.9381 43.0023 60.2095 42.3192 60.2095H45.796C46.479 60.2095 47.1342 59.9381 47.6172 59.4551L48.6839 58.3884C49.1669 57.9054 49.4383 57.2504 49.4383 56.5672V54.8344L47.0007 51.2365Z" fill="#B3DAFE"/>
<path id="Vector_8" d="M45.9614 10.6754H49.4382V54.8342H45.9614V10.6754Z" fill="#C4E2FF"/>
<path id="Vector_9" d="M51.6146 0.84475V12.2926C51.6146 12.6171 51.3519 12.8799 51.0288 12.8799L48.3245 13.1374H26.9019L25.9361 12.8799L24.9704 13.1374H20.4785L12.6103 11.4539L5.458 13.1374H0.58725C0.26275 13.1374 0 12.8746 0 12.5501V0.58725C0 0.26275 0.26275 0 0.58725 0H24.9704L25.9361 0.386375L26.9019 0H48.3245L51.0288 0.2575C51.352 0.2575 51.6146 0.52025 51.6146 0.84475Z" fill="#918291"/>
<g id="Group_5">
<path id="Vector_10" d="M51.2863 0H48.0669C48.3901 0 48.6528 0.26275 48.6528 0.58725V12.5503C48.6528 12.8748 48.39 13.1375 48.0669 13.1375H51.2863C51.6095 13.1375 51.8721 12.8748 51.8721 12.5503V0.58725C51.8723 0.26275 51.6095 0 51.2863 0Z" fill="#7A6D79"/>
</g>
</g>
<path id="Vector_11" d="M15.8321 45.3184C14.8315 44.563 13.1386 43.3197 12.5072 42.2976C8.75236 36.2176 9.51123 28.1404 14.784 22.8677C20.0567 17.5951 28.1339 16.8361 34.2139 20.591C35.2361 21.2222 36.4424 23.1671 37.1371 24.2106C41.2585 30.4007 42.8902 37.7871 36.731 43.9462C30.5717 50.1054 21.3776 49.5049 15.8321 45.3184Z" fill="#918291"/>
<g id="Group_6">
<path id="Vector_12" d="M37.0884 22.8677C36.2019 21.9812 35.2357 21.2231 34.2135 20.5917C37.9684 26.6717 37.2101 34.7485 31.9375 40.0212C26.6649 45.294 18.588 46.0521 12.508 42.2972C13.1394 43.3195 13.8975 44.2856 14.784 45.1721C20.9431 51.3312 30.9291 51.3312 37.0884 45.1721C43.2476 39.013 43.2476 29.0269 37.0884 22.8677Z" fill="#7A6D79"/>
<path id="Vector_13" d="M20.4784 10.3054V13.1374H5.45789V10.3054C5.45789 9.20487 6.36264 8.31274 7.47864 8.31274H18.4575C19.5736 8.31274 20.4784 9.20487 20.4784 10.3054Z" fill="#7A6D79"/>
<path id="Vector_14" d="M18.4702 29.6492C20.5672 32.1661 20.5672 35.8735 18.4704 38.3904C17.8317 39.1569 17.0694 39.7426 16.2419 40.1522C16.105 40.22 16.0579 40.3942 16.1425 40.5215C16.5734 41.1691 17.075 41.7836 17.6481 42.3536C22.3021 46.9827 29.7439 46.9314 34.3364 42.2412C38.8069 37.6756 38.808 30.369 34.3396 25.802C29.748 21.1091 22.3042 21.0559 17.6489 25.6856C17.0755 26.2559 16.5736 26.8705 16.1426 27.5184C16.058 27.6456 16.1051 27.8199 16.242 27.8876C17.0692 28.2971 17.8316 28.8827 18.4702 29.6492Z" fill="#7A6D79"/>
</g>
<path id="Vector_15" d="M36.5561 28.976C36.5294 32.9765 34.99 36.9688 31.9376 40.0212C28.8804 43.0785 24.88 44.6179 20.8732 44.6399C25.2829 46.7597 30.7016 45.9531 34.3362 42.2411C37.8721 38.6299 38.6125 33.3047 36.5561 28.976Z" fill="#685E68"/>
</g>
<g id="Group_7">
<path id="Vector_16" d="M36.7312 6.56874C36.7312 8.18362 35.4215 9.49187 33.8068 9.49187C32.192 9.49187 30.8837 8.18349 30.8837 6.56874C30.8837 5.29262 31.7014 4.20699 32.841 3.80912C33.1437 3.70349 33.4682 4.06737 33.8068 4.06737C34.1454 4.06737 34.4699 3.70362 34.7725 3.80912C35.9134 4.20699 36.7312 5.29249 36.7312 6.56874Z" fill="#EAF6FF"/>
<g id="Group_8">
<path id="Vector_17" d="M34.7725 3.80913V6.56875C34.7725 7.10188 34.3411 7.53451 33.8068 7.53451C33.2736 7.53451 32.841 7.10188 32.841 6.56875V3.80913C33.1436 3.7035 33.4681 3.64563 33.8068 3.64563C34.1454 3.64551 34.4699 3.7035 34.7725 3.80913Z" fill="#918291"/>
</g>
<g id="Group_9">
<path id="Vector_18" d="M24.9703 0H26.9019V13.1374H24.9703V0Z" fill="#7A6D79"/>
</g>
<path id="Vector_19" d="M46.9248 6.56876C46.9248 8.18363 45.6164 9.49188 44.0017 9.49188C42.3869 9.49188 41.0786 8.18351 41.0786 6.56876C41.0786 5.29263 41.8963 4.20701 43.0359 3.81051C43.3386 3.70363 43.6631 4.35238 44.0017 4.35238C44.3403 4.35238 44.6648 3.70363 44.9674 3.81051C46.1071 4.20701 46.9248 5.29251 46.9248 6.56876Z" fill="#EAF6FF"/>
<g id="Group_10">
<path id="Vector_20" d="M44.9674 3.81037V6.56874C44.9674 7.10187 44.5348 7.53449 44.0016 7.53449C43.4685 7.53449 43.0359 7.10187 43.0359 6.56874V3.81037C43.3385 3.70349 43.663 3.64549 44.0016 3.64549C44.3403 3.64549 44.6648 3.70349 44.9674 3.81037Z" fill="#918291"/>
</g>
</g>
</g>
<g id="Group_11">
<path id="Vector_21" d="M63.228 42.0474C63.228 49.9743 57.574 55.3905 49.6472 55.3905C45.1261 55.3905 41.0937 54.3095 38.4629 51.0425C36.481 48.5815 35.2944 45.4531 35.2944 42.0474C35.2944 34.1205 41.7204 27.6945 49.6472 27.6945C53.053 27.6945 56.1814 28.8811 58.6424 30.863C61.9092 33.4938 63.228 37.5263 63.228 42.0474Z" fill="#EAF6FF"/>
<path id="Vector_22" d="M58.6424 30.863C60.6243 33.324 61.5534 36.4525 61.5534 39.8583C61.5534 47.7851 55.3849 53.9535 47.4581 53.9535C44.0524 53.9535 40.9239 53.0244 38.4629 51.0425C41.0938 54.3095 45.1261 56.4001 49.6473 56.4001C57.5741 56.4001 64.0001 49.9741 64.0001 42.0473C64 37.5263 61.9093 33.4939 58.6424 30.863Z" fill="#D8ECFE"/>
<g id="Group_12">
<path id="Vector_23" d="M49.6471 40.6815L46.7265 37.7609L46.9321 37.5552C47.3092 37.1781 47.3092 36.5666 46.9321 36.1894C46.5548 35.8123 45.9435 35.8123 45.5661 36.1894L45.3605 36.395L42.9072 33.9418C42.53 33.5645 41.9186 33.5645 41.5412 33.9418C41.1641 34.3189 41.1641 34.9304 41.5412 35.3076L43.9945 37.7609L43.7888 37.9665C43.4117 38.3436 43.4117 38.9551 43.7888 39.3324C43.9775 39.521 44.2247 39.6153 44.4718 39.6153C44.719 39.6153 44.9662 39.5209 45.1548 39.3324L45.3605 39.1268L48.2811 42.0474L49.6471 40.6815Z" fill="#918291"/>
<path id="Vector_24" d="M48.2812 42.0474L45.6457 44.6829L45.2742 44.3114C45.0535 44.0908 44.7396 43.9903 44.4324 44.0416L41.9011 44.464C41.4941 44.5319 41.1752 44.8509 41.1075 45.2578L40.7821 47.2083C40.6944 47.7344 41.0497 48.232 41.5757 48.3198C42.1015 48.4069 42.5995 48.0521 42.6872 47.526L42.8991 46.2558L44.2599 46.0288L45.6657 47.4346L45.4386 48.7954L44.1684 49.0074C43.6422 49.0953 43.287 49.5929 43.3747 50.119C43.4535 50.5914 43.8626 50.926 44.3262 50.926C44.379 50.926 44.4325 50.9216 44.4864 50.9128L46.4369 50.5873C46.8439 50.5194 47.1626 50.2005 47.2305 49.7935L47.6529 47.2621C47.7042 46.9544 47.6039 46.6409 47.3832 46.4203L47.0116 46.0486L53.6484 39.4119L54.0199 39.7834C54.2025 39.966 54.4489 40.0663 54.7029 40.0663C54.7557 40.0663 54.8089 40.0619 54.8619 40.0531L57.3931 39.6308C57.8001 39.5629 58.1189 39.244 58.1867 38.837L58.5122 36.8865C58.6 36.3604 58.2447 35.8628 57.7186 35.7749C57.1924 35.6873 56.6947 36.0425 56.6071 36.5686L56.3951 37.8389L55.0344 38.0659L53.6286 36.66L53.8556 35.2993L55.126 35.0874C55.652 34.9996 56.0074 34.5019 55.9196 33.9759C55.832 33.4499 55.3349 33.0948 54.8081 33.1821L52.8575 33.5075C52.4505 33.5754 52.1317 33.8944 52.0639 34.3013L51.6416 36.8326C51.5902 37.1403 51.6906 37.4539 51.9112 37.6744L52.2829 38.046L49.6474 40.6815L48.2812 42.0474Z" fill="#918291"/>
<path id="Vector_25" d="M55.8996 48.102C55.1629 48.8388 54.4445 48.9484 53.7078 48.2116L52.0665 47.1349L47.0124 42.0808C46.7023 41.7706 46.7023 41.2678 47.0124 40.9576L48.5574 39.4126C48.8675 39.1025 49.3704 39.1025 49.6805 39.4126L54.8114 44.5435L55.8996 45.9979C56.6365 46.7346 56.6365 47.3653 55.8996 48.102Z" fill="#8AC9FE"/>
<path id="Vector_26" d="M56.0647 45.7969L54.3907 44.1229C55.1275 44.8596 55.1275 46.0543 54.3907 46.791C53.654 47.5278 52.4593 47.5278 51.7226 46.791L53.3966 48.465C54.1333 49.2018 55.328 49.2018 56.0647 48.465C56.8016 47.7281 56.8016 46.5336 56.0647 45.7969Z" fill="#60B7FF"/>
</g>
</g>
</g>
</g>
<defs>
<clipPath id="clip0_2122_277">
<rect width="64" height="64" fill="white"/>
</clipPath>
</defs>
</svg>
